<svg viewBox="0 0 1010 270" fill="none" xmlns="http://www.w3.org/2000/svg">
<path d="M0.923496 55H14.5412L17.6779 45.131H36.8038L40.017 55H54.2467L34.5087 0.299699H20.585L0.923496 55ZM20.8145 35.415L25.0222 22.1798C25.9403 19.3492 27.2408 14.4529 27.2408 14.4529H27.3939C27.3939 14.4529 28.6179 19.3492 29.536 22.1798L33.6672 35.415H20.8145ZM239.807 55H253.348V11.7753H269.414V0.299699H223.894V11.7753H239.807V55ZM273.691 55H287.232V32.2018H306.435V55H319.976V0.299699H306.435V21.0323H287.232V0.299699H273.691V55ZM326.718 55H340.259V34.497H348.445C354.259 34.497 356.86 37.2511 357.549 42.3003C358.391 47.7321 358.161 54.1585 359.615 55H372.773V54.3115C370.861 53.6229 371.626 46.7376 370.478 39.5462C369.713 34.1144 367.265 31.1308 362.522 29.5242V29.2947C368.872 27.0761 372.008 22.4093 372.008 16.0595C372.008 5.88449 363.746 0.299699 352.882 0.299699H326.718V55ZM340.259 24.4749V11.0102H350.74C355.942 11.0102 358.544 13.8409 358.544 17.8191C358.544 21.9503 355.789 24.4749 350.434 24.4749H340.259ZM377.279 55H419.203V43.5244H390.82V31.8193H414.766V21.2618H390.82V11.4693H418.744V0.299699H377.279V55ZM424.553 55H466.477V43.5244H438.094V31.8193H462.04V21.2618H438.094V11.4693H466.018V0.299699H424.553V55ZM470.527 41.1528H491.336V30.4422H470.527V41.1528ZM510.229 43.6009V11.6223H518.339C526.831 11.6223 531.65 18.0486 531.65 27.9941C531.65 38.0161 527.06 43.6009 518.186 43.6009H510.229ZM496.688 55H519.18C526.066 55 531.574 53.2404 535.858 50.0272C541.978 45.3605 545.345 37.6336 545.345 27.9941C545.345 11.2398 535.17 0.299699 520.022 0.299699H496.688V55ZM542.602 55H556.22L559.357 45.131H578.483L581.696 55H595.926L576.188 0.299699H562.264L542.602 55ZM562.493 35.415L566.701 22.1798C567.619 19.3492 568.92 14.4529 568.92 14.4529H569.073C569.073 14.4529 570.297 19.3492 571.215 22.1798L575.346 35.415H562.493ZM606.227 55H619.769V34.803L638.282 0.299699H623.976L617.014 14.4529C615.178 18.2016 613.266 22.7918 613.266 22.7918H613.113C613.113 22.7918 611.353 18.2016 609.517 14.4529L602.479 0.299699H587.713L606.227 34.803V55ZM823.829 55H837.37V11.7753H853.436V0.299699H807.916V11.7753H823.829V55ZM857.79 55H871.331V0.299699H857.79V55ZM878.091 55H890.255V27.5351C890.255 25.3165 890.026 16.5185 890.026 16.5185H890.179C890.179 16.5185 892.091 24.781 892.704 26.7701L900.507 55H911.677L919.556 26.6936C920.168 24.7044 922.081 16.5185 922.081 16.5185H922.234C922.234 16.5185 922.005 25.24 922.005 27.4586V55H934.398V0.299699H916.037L909.305 24.2454C908.387 27.6881 906.245 36.7156 906.245 36.7156H906.092C906.092 36.7156 903.95 27.6881 902.955 24.2454L896.299 0.299699H878.091V55ZM941.129 55H983.054V43.5244H954.671V31.8193H978.616V21.2618H954.671V11.4693H982.594V0.299699H941.129V55ZM987.103 41.1528H1007.91V30.4422H987.103V41.1528ZM4.74869 126H18.2899V103.202H37.4924V126H51.0336V71.2997H37.4924V92.0323H18.2899V71.2997H4.74869V126ZM82.6392 116.284C73.8413 116.284 69.3276 108.71 69.3276 98.7646C69.3276 88.8191 73.8413 81.1687 82.6392 81.1687C91.5137 81.1687 95.8744 88.8191 95.8744 98.7646C95.8744 108.71 91.5137 116.284 82.6392 116.284ZM82.5627 127.301C99.1641 127.301 109.645 115.136 109.645 98.7646C109.645 82.3928 99.1641 70.2286 82.5627 70.2286C66.0379 70.2286 55.5569 82.3928 55.5569 98.7646C55.5569 115.136 66.0379 127.301 82.5627 127.301ZM114.164 126H127.935V107.716H140.711C151.957 107.716 159.225 100.295 159.225 89.8136C159.225 84.3054 157.236 79.6386 153.717 76.349C150.351 73.1358 145.454 71.2997 138.798 71.2997H114.164V126ZM127.935 97.005V82.6988H137.957C142.777 82.6988 145.607 85.3764 145.607 89.7371C145.607 94.0979 142.853 97.005 137.957 97.005H127.935ZM163.306 126H177.077V107.716H189.853C201.099 107.716 208.367 100.295 208.367 89.8136C208.367 84.3054 206.378 79.6386 202.859 76.349C199.492 73.1358 194.596 71.2997 187.94 71.2997H163.306V126ZM177.077 97.005V82.6988H187.099C191.918 82.6988 194.749 85.3764 194.749 89.7371C194.749 94.0979 191.995 97.005 187.099 97.005H177.077ZM212.524 126H226.066V71.2997H212.524V126ZM232.826 126H246.061V100.524C246.061 98.6116 245.908 91.5732 245.908 91.5732H246.061C246.061 91.5732 249.045 97.464 249.963 98.9176L266.029 126H279.646V71.2997H266.411V97.2345C266.411 99.1471 266.564 105.726 266.564 105.726H266.411C266.411 105.726 263.504 100.295 262.663 98.7646L246.444 71.2997H232.826V126ZM310.245 127.224C316.824 127.224 322.18 125.005 325.775 119.421H325.928L326.693 126H336.18V96.6225H313.382V106.568H323.633V106.721C323.098 111.541 318.89 116.284 311.775 116.284C303.207 116.284 298.004 108.863 298.004 98.8411C298.004 88.8956 302.518 81.3982 311.546 81.3982C317.513 81.3982 321.185 84.7644 322.18 89.2016H335.338C333.579 77.726 325.163 70.2286 311.087 70.2286C303.207 70.2286 296.857 72.9063 292.343 77.4965C287.141 82.6988 284.234 90.2727 284.234 98.8411C284.234 107.18 286.835 114.371 291.578 119.574C296.092 124.47 302.442 127.224 310.245 127.224ZM383.666 126H397.207V82.7753H413.273V71.2997H367.753V82.7753H383.666V126ZM440.098 116.284C431.3 116.284 426.786 108.71 426.786 98.7646C426.786 88.8191 431.3 81.1687 440.098 81.1687C448.972 81.1687 453.333 88.8191 453.333 98.7646C453.333 108.71 448.972 116.284 440.098 116.284ZM440.021 127.301C456.623 127.301 467.104 115.136 467.104 98.7646C467.104 82.3928 456.623 70.2286 440.021 70.2286C423.496 70.2286 413.015 82.3928 413.015 98.7646C413.015 115.136 423.496 127.301 440.021 127.301ZM494.191 126.995C509.416 126.995 516.989 119.344 516.989 106.721V71.2997H503.448V106.951C503.448 112.306 500.465 116.131 494.191 116.131C487.535 116.131 484.781 112.535 484.781 107.18V71.2997H471.24V106.721C471.24 119.497 478.891 126.995 494.191 126.995ZM523.305 126H536.846V105.497H545.032C550.846 105.497 553.447 108.251 554.136 113.3C554.977 118.732 554.748 125.158 556.201 126H569.36V125.311C567.447 124.623 568.212 117.738 567.065 110.546C566.3 105.114 563.852 102.131 559.108 100.524V100.295C565.458 98.0761 568.595 93.4093 568.595 87.0595C568.595 76.8845 560.333 71.2997 549.469 71.2997H523.305V126ZM536.846 95.4749V82.0102H547.327C552.529 82.0102 555.13 84.8409 555.13 88.8191C555.13 92.9503 552.376 95.4749 547.021 95.4749H536.846ZM626.914 116.284C618.116 116.284 613.602 108.71 613.602 98.7646C613.602 88.8191 618.116 81.1687 626.914 81.1687C635.788 81.1687 640.149 88.8191 640.149 98.7646C640.149 108.71 635.788 116.284 626.914 116.284ZM626.837 127.301C643.438 127.301 653.919 115.136 653.919 98.7646C653.919 82.3928 643.438 70.2286 626.837 70.2286C610.312 70.2286 599.831 82.3928 599.831 98.7646C599.831 115.136 610.312 127.301 626.837 127.301ZM658.439 126H671.98V104.732H694.701V93.7918H671.98V82.6988H699.139V71.2997H658.439V126ZM743.125 126H756.437L762.175 99.7592C763.093 95.3984 764.011 89.5841 764.011 89.5841H764.164C764.164 89.5841 765.082 95.3984 766.076 99.7592L771.814 126H785.049L800.044 71.2997H786.426L780.995 94.0979C779.771 99.5296 778.241 107.792 778.241 107.792H778.088C778.088 107.792 776.71 100.218 775.486 94.6334L770.361 71.2997H757.814L752.688 94.7864C751.464 100.295 750.011 107.792 750.011 107.792H749.858C749.858 107.792 748.557 99.5296 747.333 94.2509L741.825 71.2997H728.13L743.125 126ZM803.061 126H816.602V103.202H835.804V126H849.346V71.2997H835.804V92.0323H816.602V71.2997H803.061V126ZM852.262 126H865.88L869.017 116.131H888.143L891.356 126H905.586L885.848 71.2997H871.924L852.262 126ZM872.153 106.415L876.361 93.1798C877.279 90.3492 878.58 85.4529 878.58 85.4529H878.733C878.733 85.4529 879.957 90.3492 880.875 93.1798L885.006 106.415H872.153ZM915.257 126H928.798V82.7753H944.864V71.2997H899.344V82.7753H915.257V126ZM948.588 94.0214C951.648 93.7153 954.785 92.4148 956.927 90.1962C958.916 88.1306 960.216 85.2999 960.216 81.3217V71.2997H948.817V82.6988H954.02C954.02 86.065 951.572 88.6661 948.588 89.5841V94.0214ZM986.84 127.301C999.464 127.301 1009.26 120.951 1009.26 109.475C1009.26 97.7701 1000.08 94.6334 989.901 92.2618C981.715 90.4257 977.507 89.5076 977.507 85.6824C977.507 82.6223 980.644 80.5567 985.387 80.5567C990.436 80.5567 993.649 82.9283 994.185 87.136H1007.42C1006.88 75.6604 997.704 70.3051 985.846 70.3051C973.605 70.3051 964.119 75.4309 964.119 87.136C964.119 98.6116 974.141 101.519 983.627 103.737C991.125 105.573 995.562 106.492 995.562 110.852C995.562 114.983 991.201 116.59 986.764 116.59C980.261 116.59 976.665 114.295 976.053 108.787H962.436C962.742 120.874 972.305 127.301 986.84 127.301ZM4.74869 197H17.9839V171.524C17.9839 169.612 17.8309 162.573 17.8309 162.573H17.9839C17.9839 162.573 20.9675 168.464 21.8856 169.918L37.9514 197H51.5691V142.3H38.3339V168.235C38.3339 170.147 38.4869 176.726 38.4869 176.726H38.3339C38.3339 176.726 35.4268 171.295 34.5852 169.765L18.3664 142.3H4.74869V197ZM58.2984 197H100.223V185.524H71.8396V173.819H95.7854V163.262H71.8396V153.469H99.7636V142.3H58.2984V197ZM102.053 197H117.431L128.065 178.486H128.218L138.469 197H154.458L136.327 168.158L152.546 142.3H137.857L128.447 158.213H128.294L119.037 142.3H103.583L120.185 168.311L102.053 197ZM170.42 197H183.961V153.775H200.027V142.3H154.507V153.775H170.42V197ZM222.715 197H236.256V142.3H222.715V197ZM243.016 197H256.252V171.524C256.252 169.612 256.099 162.573 256.099 162.573H256.252C256.252 162.573 259.235 168.464 260.153 169.918L276.219 197H289.837V142.3H276.602V168.235C276.602 170.147 276.755 176.726 276.755 176.726H276.602C276.602 176.726 273.695 171.295 272.853 169.765L256.634 142.3H243.016V197ZM314.9 197H328.441V174.202H347.644V197H361.185V142.3H347.644V163.032H328.441V142.3H314.9V197ZM368.003 197H381.545V142.3H368.003V197ZM388.305 197H402.076V178.716H414.852C426.098 178.716 433.366 171.295 433.366 160.814C433.366 155.305 431.377 150.639 427.858 147.349C424.491 144.136 419.595 142.3 412.939 142.3H388.305V197ZM402.076 168.005V153.699H412.098C416.917 153.699 419.748 156.376 419.748 160.737C419.748 165.098 416.994 168.005 412.098 168.005H402.076ZM435.026 183.153H455.835V172.442H435.026V183.153ZM461.187 197H474.728V174.202H493.931V197H507.472V142.3H493.931V163.032H474.728V142.3H461.187V197ZM539.078 187.284C530.28 187.284 525.766 179.71 525.766 169.765C525.766 159.819 530.28 152.169 539.078 152.169C547.952 152.169 552.313 159.819 552.313 169.765C552.313 179.71 547.952 187.284 539.078 187.284ZM539.001 198.301C555.602 198.301 566.083 186.136 566.083 169.765C566.083 153.393 555.602 141.229 539.001 141.229C522.476 141.229 511.995 153.393 511.995 169.765C511.995 186.136 522.476 198.301 539.001 198.301ZM570.602 197H584.373V178.716H597.149C608.395 178.716 615.663 171.295 615.663 160.814C615.663 155.305 613.674 150.639 610.155 147.349C606.789 144.136 601.893 142.3 595.237 142.3H570.602V197ZM584.373 168.005V153.699H594.395C599.215 153.699 602.046 156.376 602.046 160.737C602.046 165.098 599.291 168.005 594.395 168.005H584.373ZM612.097 210.694C615.693 210.465 619.059 209.011 621.43 206.486C623.725 204.038 625.026 200.825 625.026 196.005V184.147H611.944V197H618.064C618.064 201.361 615.769 204.421 612.097 205.415V210.694ZM648.819 197H675.825C681.562 197 686.076 195.623 689.289 193.098C692.885 190.344 694.874 186.366 694.874 180.858C694.874 174.355 691.049 169.306 685.082 167.469V167.24C689.901 165.404 692.732 161.961 692.732 156.529C692.732 152.169 691.125 148.65 687.989 146.048C685.082 143.677 680.874 142.3 675.213 142.3H648.819V197ZM662.207 186.136V173.131H674.141C678.273 173.131 681.486 175.349 681.486 179.71C681.486 183.612 678.732 186.136 674.295 186.136H662.207ZM662.207 163.95V153.01H673.3C677.278 153.01 679.803 154.999 679.803 158.442C679.803 162.038 677.125 163.95 673.223 163.95H662.207ZM699.38 197H712.921V176.497H721.107C726.921 176.497 729.523 179.251 730.211 184.3C731.053 189.732 730.823 196.158 732.277 197H745.435V196.311C743.523 195.623 744.288 188.738 743.14 181.546C742.375 176.114 739.927 173.131 735.184 171.524V171.295C741.534 169.076 744.67 164.409 744.67 158.06C744.67 147.884 736.408 142.3 725.544 142.3H699.38V197ZM712.921 166.475V153.01H723.402C728.604 153.01 731.206 155.841 731.206 159.819C731.206 163.95 728.451 166.475 723.096 166.475H712.921ZM774.805 187.284C766.007 187.284 761.493 179.71 761.493 169.765C761.493 159.819 766.007 152.169 774.805 152.169C783.68 152.169 788.04 159.819 788.04 169.765C788.04 179.71 783.68 187.284 774.805 187.284ZM774.729 198.301C791.33 198.301 801.811 186.136 801.811 169.765C801.811 153.393 791.33 141.229 774.729 141.229C758.204 141.229 747.723 153.393 747.723 169.765C747.723 186.136 758.204 198.301 774.729 198.301ZM828.899 197.995C844.123 197.995 851.697 190.344 851.697 177.721V142.3H838.156V177.951C838.156 183.306 835.172 187.131 828.899 187.131C822.243 187.131 819.489 183.535 819.489 178.18V142.3H805.948V177.721C805.948 190.497 813.598 197.995 828.899 197.995ZM881.881 198.224C888.461 198.224 893.816 196.005 897.412 190.421H897.565L898.33 197H907.816V167.622H885.018V177.568H895.269V177.721C894.734 182.541 890.526 187.284 883.411 187.284C874.843 187.284 869.641 179.863 869.641 169.841C869.641 159.896 874.154 152.398 883.182 152.398C889.149 152.398 892.821 155.764 893.816 160.202H906.975C905.215 148.726 896.8 141.229 882.723 141.229C874.843 141.229 868.493 143.906 863.979 148.497C858.777 153.699 855.87 161.273 855.87 169.841C855.87 178.18 858.471 185.371 863.214 190.574C867.728 195.47 874.078 198.224 881.881 198.224ZM913.654 197H927.195V174.202H946.397V197H959.939V142.3H946.397V163.032H927.195V142.3H913.654V197ZM980.145 197H993.686V153.775H1009.75V142.3H964.232V153.775H980.145V197ZM18.2134 268H31.7546V224.775H47.8204V213.3H2.30057V224.775H18.2134V268ZM74.6452 258.284C65.8472 258.284 61.3335 250.71 61.3335 240.765C61.3335 230.819 65.8472 223.169 74.6452 223.169C83.5196 223.169 87.8804 230.819 87.8804 240.765C87.8804 250.71 83.5196 258.284 74.6452 258.284ZM74.5687 269.301C91.17 269.301 101.651 257.136 101.651 240.765C101.651 224.393 91.17 212.229 74.5687 212.229C58.0438 212.229 47.5628 224.393 47.5628 240.765C47.5628 257.136 58.0438 269.301 74.5687 269.301ZM265.494 268H279.035V247.803L297.549 213.3H283.243L276.281 227.453C274.445 231.202 272.532 235.792 272.532 235.792H272.379C272.379 235.792 270.62 231.202 268.783 227.453L261.745 213.3H246.98L265.494 247.803V268ZM320.474 258.284C311.676 258.284 307.162 250.71 307.162 240.765C307.162 230.819 311.676 223.169 320.474 223.169C329.348 223.169 333.709 230.819 333.709 240.765C333.709 250.71 329.348 258.284 320.474 258.284ZM320.397 269.301C336.999 269.301 347.48 257.136 347.48 240.765C347.48 224.393 336.999 212.229 320.397 212.229C303.872 212.229 293.391 224.393 293.391 240.765C293.391 257.136 303.872 269.301 320.397 269.301ZM374.567 268.995C389.792 268.995 397.366 261.344 397.366 248.721V213.3H383.824V248.951C383.824 254.306 380.841 258.131 374.567 258.131C367.912 258.131 365.157 254.535 365.157 249.18V213.3H351.616V248.721C351.616 261.497 359.267 268.995 374.567 268.995ZM570.391 268H597.396C603.134 268 607.648 266.623 610.861 264.098C614.457 261.344 616.446 257.366 616.446 251.858C616.446 245.355 612.621 240.306 606.653 238.469V238.24C611.473 236.404 614.304 232.961 614.304 227.529C614.304 223.169 612.697 219.65 609.561 217.048C606.653 214.677 602.446 213.3 596.784 213.3H570.391V268ZM583.779 257.136V244.131H595.713C599.845 244.131 603.058 246.349 603.058 250.71C603.058 254.612 600.304 257.136 595.866 257.136H583.779ZM583.779 234.95V224.01H594.872C598.85 224.01 601.375 225.999 601.375 229.442C601.375 233.038 598.697 234.95 594.795 234.95H583.779ZM633.478 268H647.019V247.803L665.533 213.3H651.226L644.265 227.453C642.428 231.202 640.516 235.792 640.516 235.792H640.363C640.363 235.792 638.603 231.202 636.767 227.453L629.729 213.3H614.964L633.478 247.803V268ZM849.462 268H863.463L881.441 213.3H867.747L859.255 241.989C858.107 246.043 856.73 251.628 856.73 251.628H856.577C856.577 251.628 855.277 246.12 854.053 241.989L845.484 213.3H831.408L849.462 268ZM884.453 268H897.994V213.3H884.453V268ZM929.542 269.224C937.269 269.224 942.853 267.082 947.061 263.027C950.81 259.432 953.258 254.459 953.64 249.027H940.099C939.487 254.306 935.509 258.131 929.465 258.131C921.356 258.131 916.307 250.863 916.307 240.841C916.307 230.896 920.514 223.475 929.389 223.475C935.203 223.475 939.028 227.223 939.717 232.12H953.258C952.569 225.999 949.815 220.644 945.072 217.048C941.17 214.065 935.815 212.229 929.465 212.229C913.17 212.229 902.536 224.546 902.536 240.841C902.536 257.213 913.476 269.224 929.542 269.224ZM957.707 268H999.631V256.524H971.248V244.819H995.193V234.262H971.248V224.469H999.172V213.3H957.707V268Z" fill="white"/>
</svg>
