<svg  viewBox="0 0 333 153" fill="none" xmlns="http://www.w3.org/2000/svg">
<path d="M0.967226 24H6.80093L8.14465 19.7722H16.3381L17.7146 24H23.8104L15.3548 0.566855H9.39005L0.967226 24ZM9.48837 15.61L11.2909 9.94011C11.6842 8.72749 12.2414 6.62998 12.2414 6.62998H12.3069C12.3069 6.62998 12.8313 8.72749 13.2246 9.94011L14.9943 15.61H9.48837ZM52.9153 24H58.7162V5.4829H65.5987V0.566855H46.0984V5.4829H52.9153V24ZM67.431 24H73.2319V14.2335H81.4581V24H87.259V0.566855H81.4581V9.44851H73.2319V0.566855H67.431V24ZM90.1472 24H95.9481V15.2167H99.4549C101.946 15.2167 103.06 16.3965 103.355 18.5596C103.715 20.8865 103.617 23.6395 104.24 24H109.877V23.705C109.058 23.4101 109.385 20.4604 108.894 17.3797C108.566 15.0528 107.517 13.7746 105.485 13.0864V12.9881C108.205 12.0376 109.549 10.0384 109.549 7.31822C109.549 2.95933 106.01 0.566855 101.356 0.566855H90.1472V24ZM95.9481 10.9233V5.15516H100.438C102.667 5.15516 103.781 6.36779 103.781 8.07202C103.781 9.84179 102.601 10.9233 100.307 10.9233H95.9481ZM111.807 24H129.767V19.084H117.608V14.0696H127.866V9.54683H117.608V5.35181H129.571V0.566855H111.807V24ZM132.059 24H150.019V19.084H137.86V14.0696H148.118V9.54683H137.86V5.35181H149.822V0.566855H132.059V24ZM151.754 18.068H160.668V13.4797H151.754V18.068ZM168.762 19.1167V5.41735H172.236C175.874 5.41735 177.939 8.17034 177.939 12.4309C177.939 16.7243 175.972 19.1167 172.17 19.1167H168.762ZM162.961 24H172.596C175.546 24 177.906 23.2462 179.741 21.8697C182.363 19.8705 183.805 16.5604 183.805 12.4309C183.805 5.25348 179.446 0.566855 172.957 0.566855H162.961V24ZM182.63 24H188.464L189.808 19.7722H198.001L199.378 24H205.473L197.018 0.566855H191.053L182.63 24ZM191.151 15.61L192.954 9.94011C193.347 8.72749 193.904 6.62998 193.904 6.62998H193.97C193.97 6.62998 194.494 8.72749 194.888 9.94011L196.657 15.61H191.151ZM209.887 24H215.688V15.3478L223.619 0.566855H217.49L214.508 6.62998C213.721 8.23588 212.902 10.2023 212.902 10.2023H212.836C212.836 10.2023 212.082 8.23588 211.296 6.62998L208.281 0.566855H201.955L209.887 15.3478V24ZM252.718 24H258.519V5.4829H265.401V0.566855H245.901V5.4829H252.718V24ZM267.266 24H273.067V0.566855H267.266V24ZM275.963 24H281.174V12.2343C281.174 11.2838 281.076 7.51486 281.076 7.51486H281.142C281.142 7.51486 281.961 11.0544 282.223 11.9065L285.566 24H290.351L293.727 11.8738C293.989 11.0216 294.808 7.51486 294.808 7.51486H294.874C294.874 7.51486 294.775 11.2511 294.775 12.2015V24H300.085V0.566855H292.219L289.335 10.825C288.942 12.2998 288.024 16.1671 288.024 16.1671H287.958C287.958 16.1671 287.041 12.2998 286.615 10.825L283.763 0.566855H275.963V24ZM302.968 24H320.928V19.084H308.769V14.0696H319.027V9.54683H308.769V5.35181H320.732V0.566855H302.968V24ZM322.663 18.068H331.577V13.4797H322.663V18.068ZM2.60591 56H8.40684V46.2335H16.633V56H22.434V32.5669H16.633V41.4485H8.40684V32.5669H2.60591V56ZM35.9736 51.8377C32.2046 51.8377 30.2709 48.5932 30.2709 44.3326C30.2709 40.072 32.2046 36.7947 35.9736 36.7947C39.7753 36.7947 41.6434 40.072 41.6434 44.3326C41.6434 48.5932 39.7753 51.8377 35.9736 51.8377ZM35.9408 56.5572C43.0527 56.5572 47.5427 51.3461 47.5427 44.3326C47.5427 37.319 43.0527 32.108 35.9408 32.108C28.8617 32.108 24.3717 37.319 24.3717 44.3326C24.3717 51.3461 28.8617 56.5572 35.9408 56.5572ZM49.4786 56H55.3778V48.1671H60.851C65.6688 48.1671 68.7823 44.9881 68.7823 40.4981C68.7823 38.1384 67.9302 36.1392 66.4226 34.7299C64.9805 33.3534 62.883 32.5669 60.0317 32.5669H49.4786V56ZM55.3778 43.5788V37.4501H59.6712C61.7359 37.4501 62.9486 38.5972 62.9486 40.4653C62.9486 42.3334 61.7687 43.5788 59.6712 43.5788H55.3778ZM70.5305 56H76.4298V48.1671H81.903C86.7207 48.1671 89.8342 44.9881 89.8342 40.4981C89.8342 38.1384 88.9821 36.1392 87.4745 34.7299C86.0325 33.3534 83.9349 32.5669 81.0836 32.5669H70.5305V56ZM76.4298 43.5788V37.4501H80.7231C82.7879 37.4501 84.0005 38.5972 84.0005 40.4653C84.0005 42.3334 82.8206 43.5788 80.7231 43.5788H76.4298ZM91.6152 56H97.4162V32.5669H91.6152V56ZM100.312 56H105.982V45.0864C105.982 44.267 105.917 41.2519 105.917 41.2519H105.982C105.982 41.2519 107.26 43.7754 107.654 44.3981L114.536 56H120.37V32.5669H114.7V43.6771C114.7 44.4965 114.765 47.315 114.765 47.315H114.7C114.7 47.315 113.455 44.9881 113.094 44.3326L106.146 32.5669H100.312V56ZM133.478 56.5244C136.296 56.5244 138.591 55.5739 140.131 53.1815H140.197L140.524 56H144.588V43.4149H134.822V47.6755H139.213V47.741C138.984 49.8058 137.181 51.8377 134.133 51.8377C130.463 51.8377 128.234 48.6587 128.234 44.3654C128.234 40.1048 130.168 36.893 134.035 36.893C136.591 36.893 138.165 38.335 138.591 40.2359H144.228C143.474 35.3198 139.869 32.108 133.838 32.108C130.463 32.108 127.743 33.2551 125.809 35.2215C123.58 37.4501 122.335 40.6947 122.335 44.3654C122.335 47.9377 123.449 51.0184 125.481 53.247C127.415 55.3445 130.135 56.5244 133.478 56.5244ZM181.015 56H186.816V37.4829H193.699V32.5669H174.198V37.4829H181.015V56ZM205.19 51.8377C201.421 51.8377 199.488 48.5932 199.488 44.3326C199.488 40.072 201.421 36.7947 205.19 36.7947C208.992 36.7947 210.86 40.072 210.86 44.3326C210.86 48.5932 208.992 51.8377 205.19 51.8377ZM205.158 56.5572C212.269 56.5572 216.759 51.3461 216.759 44.3326C216.759 37.319 212.269 32.108 205.158 32.108C198.078 32.108 193.588 37.319 193.588 44.3326C193.588 51.3461 198.078 56.5572 205.158 56.5572ZM228.364 56.4261C234.886 56.4261 238.13 53.1487 238.13 47.741V32.5669H232.329V47.8394C232.329 50.1335 231.051 51.7722 228.364 51.7722C225.512 51.7722 224.332 50.2318 224.332 47.9377V32.5669H218.531V47.741C218.531 53.2142 221.809 56.4261 228.364 56.4261ZM240.835 56H246.636V47.2167H250.143C252.634 47.2167 253.748 48.3965 254.043 50.5596C254.404 52.8865 254.305 55.6395 254.928 56H260.565V55.705C259.746 55.4101 260.074 52.4604 259.582 49.3797C259.254 47.0528 258.205 45.7746 256.174 45.0864V44.9881C258.894 44.0376 260.237 42.0384 260.237 39.3182C260.237 34.9593 256.698 32.5669 252.044 32.5669H240.835V56ZM246.636 42.9233V37.1552H251.126C253.355 37.1552 254.469 38.3678 254.469 40.072C254.469 41.8418 253.289 42.9233 250.995 42.9233H246.636ZM301.305 51.8377C297.536 51.8377 295.603 48.5932 295.603 44.3326C295.603 40.072 297.536 36.7947 301.305 36.7947C305.107 36.7947 306.975 40.072 306.975 44.3326C306.975 48.5932 305.107 51.8377 301.305 51.8377ZM301.272 56.5572C308.384 56.5572 312.874 51.3461 312.874 44.3326C312.874 37.319 308.384 32.108 301.272 32.108C294.193 32.108 289.703 37.319 289.703 44.3326C289.703 51.3461 294.193 56.5572 301.272 56.5572ZM314.81 56H320.611V46.8889H330.345V42.2023H320.611V37.4501H332.246V32.5669H314.81V56ZM7.42363 88H13.1262L15.5843 76.7586C15.9775 74.8905 16.3708 72.3998 16.3708 72.3998H16.4364C16.4364 72.3998 16.8297 74.8905 17.2557 76.7586L19.7137 88H25.3836L31.8072 64.5669H25.9735L23.6466 74.3334C23.1222 76.6603 22.4667 80.1999 22.4667 80.1999H22.4012C22.4012 80.1999 21.8113 76.9553 21.2869 74.5628L19.091 64.5669H13.7162L11.5203 74.6284C10.996 76.9881 10.3733 80.1999 10.3733 80.1999H10.3077C10.3077 80.1999 9.75056 76.6603 9.22618 74.3989L6.86648 64.5669H1L7.42363 88ZM33.0995 88H38.9004V78.2335H47.1266V88H52.9275V64.5669H47.1266V73.4485H38.9004V64.5669H33.0995V88ZM54.177 88H60.0107L61.3544 83.7722H69.5478L70.9243 88H77.0202L68.5646 64.5669H62.5998L54.177 88ZM62.6981 79.61L64.5007 73.9401C64.894 72.7275 65.4511 70.63 65.4511 70.63H65.5167C65.5167 70.63 66.0411 72.7275 66.4343 73.9401L68.2041 79.61H62.6981ZM81.1635 88H86.9645V69.4829H93.8469V64.5669H74.3466V69.4829H81.1635V88ZM95.4421 74.3006C96.753 74.1695 98.0967 73.6124 99.0144 72.6619C99.8665 71.7771 100.424 70.5644 100.424 68.8602V64.5669H95.5404V69.4501H97.769C97.769 70.8922 96.7202 72.0065 95.4421 72.3998V74.3006ZM111.829 88.5572C117.237 88.5572 121.432 85.8369 121.432 80.9209C121.432 75.9065 117.499 74.5628 113.14 73.5468C109.633 72.7603 107.831 72.367 107.831 70.7283C107.831 69.4174 109.174 68.5325 111.206 68.5325C113.37 68.5325 114.746 69.5484 114.975 71.351H120.645C120.416 66.435 116.483 64.1408 111.403 64.1408C106.159 64.1408 102.095 66.3366 102.095 71.351C102.095 76.267 106.389 77.5124 110.453 78.4629C113.664 79.2494 115.565 79.6427 115.565 81.5108C115.565 83.2806 113.697 83.9688 111.796 83.9688C109.011 83.9688 107.47 82.9856 107.208 80.6259H101.374C101.505 85.8042 105.602 88.5572 111.829 88.5572ZM133.666 88H139.336V77.0864C139.336 76.267 139.27 73.2519 139.27 73.2519H139.336C139.336 73.2519 140.614 75.7754 141.007 76.3981L147.889 88H153.723V64.5669H148.053V75.6771C148.053 76.4965 148.119 79.315 148.119 79.315H148.053C148.053 79.315 146.808 76.9881 146.447 76.3326L139.499 64.5669H133.666V88ZM156.606 88H174.566V83.084H162.407V78.0696H172.665V73.5468H162.407V69.3518H174.369V64.5669H156.606V88ZM175.35 88H181.938L186.493 80.0688H186.559L190.95 88H197.8L190.033 75.6443L196.981 64.5669H190.688L186.657 71.3838H186.592L182.626 64.5669H176.006L183.118 75.7099L175.35 88ZM204.638 88H210.439V69.4829H217.321V64.5669H197.821V69.4829H204.638V88ZM229.376 88H235.177V64.5669H229.376V88ZM238.073 88H243.743V77.0864C243.743 76.267 243.677 73.2519 243.677 73.2519H243.743C243.743 73.2519 245.021 75.7754 245.414 76.3981L252.296 88H258.13V64.5669H252.46V75.6771C252.46 76.4965 252.526 79.315 252.526 79.315H252.46C252.46 79.315 251.215 76.9881 250.854 76.3326L243.906 64.5669H238.073V88ZM271.202 88H277.003V78.2335H285.229V88H291.03V64.5669H285.229V73.4485H277.003V64.5669H271.202V88ZM293.951 88H299.752V64.5669H293.951V88ZM302.648 88H308.547V80.1671H314.021C318.838 80.1671 321.952 76.9881 321.952 72.4981C321.952 70.1384 321.1 68.1392 319.592 66.7299C318.15 65.3534 316.053 64.5669 313.201 64.5669H302.648V88ZM308.547 75.5788V69.4501H312.841C314.905 69.4501 316.118 70.5972 316.118 72.4653C316.118 74.3334 314.938 75.5788 312.841 75.5788H308.547ZM322.663 82.068H331.577V77.4797H322.663V82.068ZM2.60591 120H8.40684V110.233H16.633V120H22.434V96.5669H16.633V105.449H8.40684V96.5669H2.60591V120ZM35.9736 115.838C32.2046 115.838 30.2709 112.593 30.2709 108.333C30.2709 104.072 32.2046 100.795 35.9736 100.795C39.7753 100.795 41.6434 104.072 41.6434 108.333C41.6434 112.593 39.7753 115.838 35.9736 115.838ZM35.9408 120.557C43.0527 120.557 47.5427 115.346 47.5427 108.333C47.5427 101.319 43.0527 96.108 35.9408 96.108C28.8617 96.108 24.3717 101.319 24.3717 108.333C24.3717 115.346 28.8617 120.557 35.9408 120.557ZM49.4786 120H55.3778V112.167H60.851C65.6688 112.167 68.7823 108.988 68.7823 104.498C68.7823 102.138 67.9302 100.139 66.4226 98.7299C64.9805 97.3534 62.883 96.5669 60.0317 96.5669H49.4786V120ZM55.3778 107.579V101.45H59.6712C61.7359 101.45 62.9486 102.597 62.9486 104.465C62.9486 106.333 61.7687 107.579 59.6712 107.579H55.3778ZM67.2544 125.866C68.7948 125.768 70.2368 125.145 71.2528 124.064C72.236 123.015 72.7932 121.639 72.7932 119.574V114.494H67.1889V120H69.8108C69.8108 121.868 68.8276 123.179 67.2544 123.605V125.866ZM104.714 120H116.283C118.741 120 120.675 119.41 122.051 118.329C123.592 117.149 124.444 115.444 124.444 113.085C124.444 110.299 122.805 108.136 120.249 107.349V107.251C122.314 106.464 123.526 104.99 123.526 102.663C123.526 100.795 122.838 99.2871 121.494 98.1728C120.249 97.1568 118.446 96.5669 116.021 96.5669H104.714V120ZM110.45 115.346V109.775H115.562C117.332 109.775 118.709 110.725 118.709 112.593C118.709 114.265 117.529 115.346 115.628 115.346H110.45ZM110.45 105.842V101.155H115.202C116.906 101.155 117.987 102.007 117.987 103.482C117.987 105.022 116.84 105.842 115.169 105.842H110.45ZM126.374 120H132.175V111.217H135.682C138.173 111.217 139.287 112.397 139.582 114.56C139.942 116.887 139.844 119.639 140.467 120H146.104V119.705C145.285 119.41 145.612 116.46 145.121 113.38C144.793 111.053 143.744 109.775 141.712 109.086V108.988C144.432 108.038 145.776 106.038 145.776 103.318C145.776 98.9593 142.237 96.5669 137.583 96.5669H126.374V120ZM132.175 106.923V101.155H136.665C138.894 101.155 140.008 102.368 140.008 104.072C140.008 105.842 138.828 106.923 136.534 106.923H132.175ZM158.686 115.838C154.917 115.838 152.983 112.593 152.983 108.333C152.983 104.072 154.917 100.795 158.686 100.795C162.487 100.795 164.356 104.072 164.356 108.333C164.356 112.593 162.487 115.838 158.686 115.838ZM158.653 120.557C165.765 120.557 170.255 115.346 170.255 108.333C170.255 101.319 165.765 96.108 158.653 96.108C151.574 96.108 147.084 101.319 147.084 108.333C147.084 115.346 151.574 120.557 158.653 120.557ZM181.859 120.426C188.381 120.426 191.625 117.149 191.625 111.741V96.5669H185.825V111.839C185.825 114.134 184.546 115.772 181.859 115.772C179.008 115.772 177.828 114.232 177.828 111.938V96.5669H172.027V111.741C172.027 117.214 175.304 120.426 181.859 120.426ZM204.556 120.524C207.375 120.524 209.669 119.574 211.209 117.181H211.275L211.603 120H215.666V107.415H205.9V111.675H210.292V111.741C210.062 113.806 208.26 115.838 205.212 115.838C201.541 115.838 199.312 112.659 199.312 108.365C199.312 104.105 201.246 100.893 205.113 100.893C207.67 100.893 209.243 102.335 209.669 104.236H215.306C214.552 99.3198 210.947 96.108 204.917 96.108C201.541 96.108 198.821 97.2551 196.887 99.2215C194.659 101.45 193.413 104.695 193.413 108.365C193.413 111.938 194.527 115.018 196.559 117.247C198.493 119.345 201.213 120.524 204.556 120.524ZM218.167 120H223.968V110.233H232.194V120H237.995V96.5669H232.194V105.449H223.968V96.5669H218.167V120ZM246.652 120H252.453V101.483H259.335V96.5669H239.835V101.483H246.652V120ZM296.518 120H302.319V101.483H309.201V96.5669H289.701V101.483H296.518V120ZM320.693 115.838C316.924 115.838 314.99 112.593 314.99 108.333C314.99 104.072 316.924 100.795 320.693 100.795C324.495 100.795 326.363 104.072 326.363 108.333C326.363 112.593 324.495 115.838 320.693 115.838ZM320.66 120.557C327.772 120.557 332.262 115.346 332.262 108.333C332.262 101.319 327.772 96.108 320.66 96.108C313.581 96.108 309.091 101.319 309.091 108.333C309.091 115.346 313.581 120.557 320.66 120.557ZM8.96399 152H14.7649V143.348L22.6961 128.567H16.5675L13.5851 134.63C12.7985 136.236 11.9792 138.202 11.9792 138.202H11.9136C11.9136 138.202 11.1598 136.236 10.3733 134.63L7.35808 128.567H1.03277L8.96399 143.348V152ZM32.517 147.838C28.748 147.838 26.8144 144.593 26.8144 140.333C26.8144 136.072 28.748 132.795 32.517 132.795C36.3187 132.795 38.1868 136.072 38.1868 140.333C38.1868 144.593 36.3187 147.838 32.517 147.838ZM32.4842 152.557C39.5961 152.557 44.0861 147.346 44.0861 140.333C44.0861 133.319 39.5961 128.108 32.4842 128.108C25.4051 128.108 20.9151 133.319 20.9151 140.333C20.9151 147.346 25.4051 152.557 32.4842 152.557ZM55.6902 152.426C62.2122 152.426 65.4568 149.149 65.4568 143.741V128.567H59.6558V143.839C59.6558 146.134 58.3777 147.772 55.6902 147.772C52.8389 147.772 51.6591 146.232 51.6591 143.938V128.567H45.8581V143.741C45.8581 149.214 49.1355 152.426 55.6902 152.426ZM144.34 152H155.909C158.367 152 160.301 151.41 161.678 150.329C163.218 149.149 164.07 147.444 164.07 145.085C164.07 142.299 162.431 140.136 159.875 139.349V139.251C161.94 138.464 163.152 136.99 163.152 134.663C163.152 132.795 162.464 131.287 161.12 130.173C159.875 129.157 158.072 128.567 155.647 128.567H144.34V152ZM150.076 147.346V141.775H155.188C156.958 141.775 158.335 142.725 158.335 144.593C158.335 146.265 157.155 147.346 155.254 147.346H150.076ZM150.076 137.842V133.155H154.828C156.532 133.155 157.614 134.007 157.614 135.482C157.614 137.022 156.467 137.842 154.795 137.842H150.076ZM171.366 152H177.167V143.348L185.098 128.567H178.97L175.987 134.63C175.201 136.236 174.381 138.202 174.381 138.202H174.316C174.316 138.202 173.562 136.236 172.776 134.63L169.76 128.567H163.435L171.366 143.348V152ZM263.892 152H269.89L277.592 128.567H271.725L268.087 140.857C267.596 142.594 267.006 144.986 267.006 144.986H266.94C266.94 144.986 266.383 142.627 265.859 140.857L262.188 128.567H256.158L263.892 152ZM278.882 152H284.683V128.567H278.882V152ZM298.198 152.524C301.508 152.524 303.9 151.607 305.703 149.87C307.309 148.329 308.357 146.199 308.521 143.872H302.72C302.458 146.134 300.754 147.772 298.165 147.772C294.691 147.772 292.528 144.659 292.528 140.365C292.528 136.105 294.33 132.926 298.132 132.926C300.623 132.926 302.262 134.532 302.557 136.629H308.357C308.063 134.007 306.883 131.713 304.851 130.173C303.179 128.895 300.885 128.108 298.165 128.108C291.184 128.108 286.629 133.385 286.629 140.365C286.629 147.379 291.315 152.524 298.198 152.524ZM310.263 152H328.223V147.084H316.064V142.07H326.322V137.547H316.064V133.352H328.027V128.567H310.263V152Z" fill="white"/>
</svg>
