<svg viewBox="0 0 59 19" fill="none" xmlns="http://www.w3.org/2000/svg">
<path d="M38.4156 4.73803C38.9014 5.31132 39.9622 5.2806 40.5967 5.70033C39.7441 5.92556 38.6733 5.92556 37.9 6.23267C38.0785 5.74128 38.247 5.22942 38.4156 4.73803ZM28.6103 11.3309C28.075 12.6412 29.0366 13.3169 30.1669 13.3169C32.695 13.3169 34.5391 11.1363 37.1168 11.1773C37.4341 10.4607 37.1961 9.52909 36.859 9.0377C36.7301 9.46767 36.6211 9.89763 36.393 10.215C34.6977 10.3174 32.9627 10.6654 31.307 10.645C31.6044 9.31411 32.1398 7.93207 32.3976 6.7343C31.2475 8.17776 29.3737 9.4779 28.6103 11.3309ZM40.9635 0.448591C40.5571 0.469066 40.0911 0.591914 39.7143 0.550965C39.1591 0.510015 38.6833 0.22337 38.1578 0.131235C35.4016 -0.349919 32.8735 0.581676 30.9402 1.47232C30.5337 1.65659 29.8199 2.20941 29.4332 2.21965C28.9672 2.24012 28.1344 1.75897 27.5098 1.5747C24.7636 0.755711 20.5698 -0.30897 18.4284 1.4109C15.7317 1.01164 13.2531 1.69754 11.2108 2.32202C11.1017 0.653338 9.59472 -0.339682 7.83989 0.182421C6.67001 0.53049 5.70832 1.20615 4.51861 1.68731C2.19866 2.60866 -0.151023 4.58447 0.00760612 7.68637C0.0770061 9.14007 0.691692 10.3378 1.09818 11.382C1.51458 12.4672 1.96072 13.3476 2.65472 14.5966C2.46635 14.9651 2.29781 15.2006 2.23832 15.6101C1.79218 19.0907 6.29327 19.2034 8.6727 18.1796C10.725 17.289 12.8764 15.7227 14.3338 14.5863C13.1738 19.7459 21.0061 19.9712 22.9988 17.3709C25.7947 19.5309 31.8424 19.2853 34.8266 17.4732C37.5927 19.7664 43.7098 18.8962 47.4376 18.0056C49.3609 17.5449 51.0563 17.1764 52.3154 16.2345C53.6043 15.2722 54.4073 13.7981 54.7543 11.8939C54.4965 11.1671 54.0405 10.6347 53.6142 10.0717C53.8224 9.61099 53.8918 8.77153 53.7728 8.14705C55.3987 6.94929 56.757 5.07586 57.9765 3.48907C58.1252 3.29457 58.4028 3.04887 58.3334 2.79294C52.7715 1.91253 47.4078 0.120997 40.9635 0.448591ZM54.6155 4.25687C54.7147 4.50257 54.4172 4.64589 54.3082 4.78921C53.2275 6.10983 51.9287 7.10285 49.6385 7.25641C47.9928 7.35878 46.2974 7.00047 44.5525 7.04142C44.1758 7.34854 44.1262 7.99349 43.8288 8.38251C46.2082 8.85343 47.8341 7.48163 50.1045 7.63519C50.9076 7.68637 51.7503 8.03444 51.8197 8.7101C51.9188 9.70312 50.9571 10.5938 50.164 10.9111C48.5083 11.5561 45.534 11.1978 43.4719 11.5561C42.758 11.6789 41.8955 12.027 42.0145 12.5184C42.0938 12.8357 43.1744 13.02 43.6701 13.0507C46.4164 13.2555 48.4092 12.1806 50.4614 11.8734C51.1554 11.7711 52.1766 11.7199 52.593 12.0884C52.2163 14.6989 50.164 15.1494 47.616 15.7841C44.8301 16.47 41.3898 17.3197 37.9694 16.5928C36.6508 16.3062 35.9965 16.1322 36.2542 14.3918C34.1425 15.7022 30.2264 17.5961 26.3499 16.5314C24.5256 16.0298 22.8402 15.3439 22.8204 12.9995C22.5725 13.5728 22.3048 14.1256 21.9876 14.7706C21.7397 15.2722 21.5613 16.0707 21.1052 16.429C20.203 17.1354 16.7826 17.0842 16.386 15.9991C16.0192 15.0061 16.7727 12.9176 17.0106 12.2522C17.6253 10.5221 18.4978 9.38577 18.0516 7.26664C17.5956 7.52258 17.308 8.0242 16.961 8.44393C14.9782 10.8292 13.0846 13.3476 10.2689 14.9753C8.98004 15.7329 7.55238 16.6338 5.80747 16.6338C5.20269 16.6338 4.59792 16.5826 4.30049 16.1526C4.35998 15.4155 5.01432 15.2825 5.28201 14.7604C4.25092 13.3067 3.40821 11.7096 2.72412 9.82597C2.39695 8.9558 1.95081 8.16753 2.09952 6.93905C2.35729 4.74826 4.40955 4.05213 6.25361 3.29457C7.23512 2.88507 8.06792 2.07632 9.05935 2.21965C9.41627 3.27409 8.99987 4.33877 8.80158 5.38298C8.47441 7.07213 8.0481 8.85343 8.43475 10.8497C9.07918 10.5528 9.45592 9.98977 9.83267 9.34482C10.14 8.82272 10.7448 7.96278 10.8142 7.30759C10.8836 6.64217 10.4672 5.99722 10.6556 5.32155C10.9431 4.27735 13.2134 3.88833 14.2842 3.66311C15.4342 3.42765 16.5942 3.3048 17.8632 3.44813C18.2102 3.48907 18.6762 3.70406 18.9538 3.66311C19.2909 3.62216 19.5883 3.11029 19.9353 2.91578C21.1647 2.20941 23.2269 2.75199 24.7041 3.07958C25.7451 3.3048 26.7861 3.60168 27.8172 3.88833C27.3413 4.55376 26.7464 5.22942 26.2111 5.97674C25.6757 6.71383 25.2097 7.49186 24.7537 8.28014C26.0128 6.95952 27.7775 5.63891 29.7505 4.52304C32.229 3.12053 35.5801 1.28805 39.0402 2.537C39.0104 2.9465 38.8617 3.24338 38.7824 3.61192C38.7923 3.65287 38.7626 3.66311 38.7328 3.66311C39.1591 3.41741 39.635 2.67009 40.2894 2.58819C45.1969 1.97395 50.6201 3.6324 54.6155 4.25687Z" fill="white"/>
</svg>
