<svg width="279" height="17" viewBox="0 0 279 17" fill="none" xmlns="http://www.w3.org/2000/svg">
<path d="M21.4223 14.0073V12.3919H20.0801V14.0073H21.4223ZM21.4223 12.2969V10.6815H20.0801V12.2969H21.4223ZM24.3086 12.2969V10.6815H22.9664V12.2969H24.3086ZM25.7459 12.2969V10.6815H24.4036V12.2969H25.7459ZM27.195 12.2969V10.6815H25.8409V12.2969H27.195ZM21.4223 10.5865V8.97108H20.0801V10.5865H21.4223ZM24.3086 10.5865V8.97108H22.9664V10.5865H24.3086ZM25.7459 10.5865V8.97108H24.4036V10.5865H25.7459ZM27.195 10.5865V8.97108H25.8409V10.5865H27.195ZM21.4223 8.87606V7.26066H20.0801V8.87606H21.4223ZM21.4223 7.16564V5.55024H20.0801V7.16564H21.4223ZM24.3086 7.16564V5.55024H22.9664V7.16564H24.3086ZM25.7459 7.16564V5.55024H24.4036V7.16564H25.7459ZM27.195 7.16564V5.55024H25.8409V7.16564H27.195ZM21.4223 5.45521V3.83981H20.0801V5.45521H21.4223ZM24.3086 5.45521V3.83981H22.9664V5.45521H24.3086ZM25.7459 5.45521V3.83981H24.4036V5.45521H25.7459ZM27.195 5.45521V3.83981H25.8409V5.45521H27.195ZM21.4223 3.74479V2.12939H20.0801V3.74479H21.4223ZM21.4342 2.03437V0.41897H20.0801V2.03437H21.4342ZM22.8714 2.03437V0.41897H21.5292V2.03437H22.8714ZM24.3086 2.03437V0.41897H22.9664V2.03437H24.3086ZM25.7577 2.03437V0.41897H24.4036V2.03437H25.7577ZM27.195 2.03437V0.41897H25.8409V2.03437H27.195ZM21.4223 15.7177V14.1023H20.0801V15.7177H21.4223ZM22.8714 15.7177V14.1023H21.5173V15.7177H22.8714ZM24.3086 15.7177V14.1023H22.9664V15.7177H24.3086ZM25.7459 15.7177V14.1023H24.4036V15.7177H25.7459ZM27.195 15.7177V14.1023H25.8409V15.7177H27.195ZM28.6203 14.0073V12.3919H27.2781V14.0073H28.6203ZM30.0694 14.0073V12.3919H28.7153V14.0073H30.0694ZM30.0694 12.2969V10.6815H28.7153V12.2969H30.0694ZM30.0694 10.5865V8.97108H28.7153V10.5865H30.0694ZM28.6203 8.87606V7.26066H27.2781V8.87606H28.6203ZM30.0694 8.87606V7.26066H28.7153V8.87606H30.0694ZM30.0694 7.16564V5.55024H28.7153V7.16564H30.0694ZM30.0694 5.45521V3.83981H28.7153V5.45521H30.0694ZM28.6203 3.74479V2.12939H27.2781V3.74479H28.6203ZM30.0694 3.74479V2.12939H28.7153V3.74479H30.0694ZM28.6322 2.03437V0.41897H27.2781V2.03437H28.6322ZM30.0694 2.03437V0.41897H28.7153V2.03437H30.0694ZM28.6203 15.7296V14.1142H27.2781V15.7296H28.6203ZM30.0694 15.7296V14.1142H28.7153V15.7296H30.0694ZM29.9336 14.0073V12.3919H28.5914V14.0073H29.9336ZM31.3827 14.0073V12.3919H30.0286V14.0073H31.3827ZM29.9336 12.2969V10.6815H28.5914V12.2969H29.9336ZM32.8199 12.2969V10.6815H31.4777V12.2969H32.8199ZM34.2571 12.2969V10.6815H32.9149V12.2969H34.2571ZM35.7062 12.2969V10.6815H34.3522V12.2969H35.7062ZM29.9336 10.5865V8.97108H28.5914V10.5865H29.9336ZM32.8199 10.5865V8.97108H31.4777V10.5865H32.8199ZM34.2571 10.5865V8.97108H32.9149V10.5865H34.2571ZM35.7062 10.5865V8.97108H34.3522V10.5865H35.7062ZM29.9336 8.87606V7.26066H28.5914V8.87606H29.9336ZM32.8199 8.87606V7.26066H31.4777V8.87606H32.8199ZM34.2571 8.87606V7.26066H32.9149V8.87606H34.2571ZM35.7062 8.87606V7.26066H34.3522V8.87606H35.7062ZM29.9336 7.16564V5.55024H28.5914V7.16564H29.9336ZM32.8199 7.16564V5.55024H31.4777V7.16564H32.8199ZM34.2571 7.16564V5.55024H32.9149V7.16564H34.2571ZM35.7062 7.16564V5.55024H34.3522V7.16564H35.7062ZM29.9336 5.45521V3.83981H28.5914V5.45521H29.9336ZM32.8199 5.45521V3.83981H31.4777V5.45521H32.8199ZM34.2571 5.45521V3.83981H32.9149V5.45521H34.2571ZM35.7062 5.45521V3.83981H34.3522V5.45521H35.7062ZM29.9336 3.74479V2.12939H28.5914V3.74479H29.9336ZM32.8199 3.74479V2.12939H31.4777V3.74479H32.8199ZM34.2571 3.74479V2.12939H32.9149V3.74479H34.2571ZM35.7062 3.74479V2.12939H34.3522V3.74479H35.7062ZM29.9454 2.03437V0.41897H28.5914V2.03437H29.9454ZM31.3827 2.03437V0.41897H30.0405V2.03437H31.3827ZM32.8199 2.03437V0.41897H31.4777V2.03437H32.8199ZM34.269 2.03437V0.41897H32.9149V2.03437H34.269ZM35.7062 2.03437V0.41897H34.3522V2.03437H35.7062ZM29.9336 15.7177V14.1023H28.5914V15.7177H29.9336ZM31.3827 15.7177V14.1023H30.0286V15.7177H31.3827ZM32.8199 15.7177V14.1023H31.4777V15.7177H32.8199ZM34.2571 15.7177V14.1023H32.9149V15.7177H34.2571ZM35.7062 15.7177V14.1023H34.3522V15.7177H35.7062ZM37.1316 14.0073V12.3919H35.7894V14.0073H37.1316ZM38.5807 14.0073V12.3919H37.2266V14.0073H38.5807ZM38.5807 12.2969V10.6815H37.2266V12.2969H38.5807ZM38.5807 10.5865V8.97108H37.2266V10.5865H38.5807ZM38.5807 8.87606V7.26066H37.2266V8.87606H38.5807ZM38.5807 7.16564V5.55024H37.2266V7.16564H38.5807ZM38.5807 5.45521V3.83981H37.2266V5.45521H38.5807ZM38.5807 3.74479V2.12939H37.2266V3.74479H38.5807ZM37.1435 2.03437V0.41897H35.7894V2.03437H37.1435ZM38.5807 2.03437V0.41897H37.2266V2.03437H38.5807ZM37.1316 15.7296V14.1142H35.7894V15.7296H37.1316ZM38.5807 15.7296V14.1142H37.2266V15.7296H38.5807ZM38.4448 14.0073V12.3919H37.1026V14.0073H38.4448ZM39.894 14.0073V12.3919H38.5399V14.0073H39.894ZM41.3312 14.0073V12.3919H39.989V14.0073H41.3312ZM44.2175 14.0073V12.3919H42.8634V14.0073H44.2175ZM38.4448 12.2969V10.6815H37.1026V12.2969H38.4448ZM39.894 12.2969V10.6815H38.5399V12.2969H39.894ZM41.3312 12.2969V10.6815H39.989V12.2969H41.3312ZM44.2175 12.2969V10.6815H42.8634V12.2969H44.2175ZM38.4448 10.5865V8.97108H37.1026V10.5865H38.4448ZM39.894 10.5865V8.97108H38.5399V10.5865H39.894ZM41.3312 10.5865V8.97108H39.989V10.5865H41.3312ZM44.2175 10.5865V8.97108H42.8634V10.5865H44.2175ZM38.4448 8.87606V7.26066H37.1026V8.87606H38.4448ZM39.894 8.87606V7.26066H38.5399V8.87606H39.894ZM41.3312 8.87606V7.26066H39.989V8.87606H41.3312ZM44.2175 8.87606V7.26066H42.8634V8.87606H44.2175ZM38.4448 7.16564V5.55024H37.1026V7.16564H38.4448ZM39.894 7.16564V5.55024H38.5399V7.16564H39.894ZM42.7684 7.16564V5.55024H41.4262V7.16564H42.7684ZM38.4448 5.45521V3.83981H37.1026V5.45521H38.4448ZM41.3312 5.45521V3.83981H39.989V5.45521H41.3312ZM42.7684 5.45521V3.83981H41.4262V5.45521H42.7684ZM44.2175 5.45521V3.83981H42.8634V5.45521H44.2175ZM38.4448 3.74479V2.12939H37.1026V3.74479H38.4448ZM41.3312 3.74479V2.12939H39.989V3.74479H41.3312ZM42.7684 3.74479V2.12939H41.4262V3.74479H42.7684ZM44.2175 3.74479V2.12939H42.8634V3.74479H44.2175ZM38.4567 2.03437V0.41897H37.1026V2.03437H38.4567ZM39.894 2.03437V0.41897H38.5517V2.03437H39.894ZM41.3312 2.03437V0.41897H39.989V2.03437H41.3312ZM42.7803 2.03437V0.41897H41.4262V2.03437H42.7803ZM44.2175 2.03437V0.41897H42.8634V2.03437H44.2175ZM38.4448 15.7177V14.1023H37.1026V15.7177H38.4448ZM39.894 15.7177V14.1023H38.5399V15.7177H39.894ZM41.3312 15.7177V14.1023H39.989V15.7177H41.3312ZM42.7684 15.7177V14.1023H41.4262V15.7177H42.7684ZM44.2175 15.7177V14.1023H42.8634V15.7177H44.2175ZM45.6429 14.0073V12.3919H44.3007V14.0073H45.6429ZM47.092 14.0073V12.3919H45.7379V14.0073H47.092ZM45.6429 12.2969V10.6815H44.3007V12.2969H45.6429ZM47.092 12.2969V10.6815H45.7379V12.2969H47.092ZM45.6429 10.5865V8.97108H44.3007V10.5865H45.6429ZM47.092 10.5865V8.97108H45.7379V10.5865H47.092ZM45.6429 8.87606V7.26066H44.3007V8.87606H45.6429ZM47.092 8.87606V7.26066H45.7379V8.87606H47.092ZM45.6429 7.16564V5.55024H44.3007V7.16564H45.6429ZM47.092 7.16564V5.55024H45.7379V7.16564H47.092ZM47.092 5.45521V3.83981H45.7379V5.45521H47.092ZM47.092 3.74479V2.12939H45.7379V3.74479H47.092ZM45.6547 2.03437V0.41897H44.3007V2.03437H45.6547ZM47.092 2.03437V0.41897H45.7379V2.03437H47.092ZM45.6429 15.7296V14.1142H44.3007V15.7296H45.6429ZM47.092 15.7296V14.1142H45.7379V15.7296H47.092ZM46.9561 14.0073V12.3919H45.6139V14.0073H46.9561ZM48.4052 14.0073V12.3919H47.0511V14.0073H48.4052ZM46.9561 12.2969V10.6815H45.6139V12.2969H46.9561ZM48.4052 12.2969V10.6815H47.0511V12.2969H48.4052ZM46.9561 10.5865V8.97108H45.6139V10.5865H46.9561ZM48.4052 10.5865V8.97108H47.0511V10.5865H48.4052ZM46.9561 8.87606V7.26066H45.6139V8.87606H46.9561ZM48.4052 8.87606V7.26066H47.0511V8.87606H48.4052ZM46.9561 7.16564V5.55024H45.6139V7.16564H46.9561ZM48.4052 7.16564V5.55024H47.0511V7.16564H48.4052ZM46.9561 5.45521V3.83981H45.6139V5.45521H46.9561ZM48.4052 5.45521V3.83981H47.0511V5.45521H48.4052ZM46.9561 3.74479V2.12939H45.6139V3.74479H46.9561ZM48.4052 3.74479V2.12939H47.0511V3.74479H48.4052ZM46.968 2.03437V0.41897H45.6139V2.03437H46.968ZM48.4052 2.03437V0.41897H47.063V2.03437H48.4052ZM46.9561 15.7177V14.1023H45.6139V15.7177H46.9561ZM48.4052 15.7177V14.1023H47.0511V15.7177H48.4052ZM49.714 14.0073V12.3919H48.3718V14.0073H49.714ZM51.1631 14.0073V12.3919H49.8091V14.0073H51.1631ZM52.6004 14.0073V12.3919H51.2582V14.0073H52.6004ZM55.4867 14.0073V12.3919H54.1326V14.0073H55.4867ZM49.714 12.2969V10.6815H48.3718V12.2969H49.714ZM51.1631 12.2969V10.6815H49.8091V12.2969H51.1631ZM52.6004 12.2969V10.6815H51.2582V12.2969H52.6004ZM55.4867 12.2969V10.6815H54.1326V12.2969H55.4867ZM49.714 10.5865V8.97108H48.3718V10.5865H49.714ZM51.1631 10.5865V8.97108H49.8091V10.5865H51.1631ZM52.6004 10.5865V8.97108H51.2582V10.5865H52.6004ZM55.4867 10.5865V8.97108H54.1326V10.5865H55.4867ZM49.714 8.87606V7.26066H48.3718V8.87606H49.714ZM51.1631 8.87606V7.26066H49.8091V8.87606H51.1631ZM52.6004 8.87606V7.26066H51.2582V8.87606H52.6004ZM55.4867 8.87606V7.26066H54.1326V8.87606H55.4867ZM49.714 7.16564V5.55024H48.3718V7.16564H49.714ZM51.1631 7.16564V5.55024H49.8091V7.16564H51.1631ZM52.6004 7.16564V5.55024H51.2582V7.16564H52.6004ZM55.4867 7.16564V5.55024H54.1326V7.16564H55.4867ZM49.714 5.45521V3.83981H48.3718V5.45521H49.714ZM51.1631 5.45521V3.83981H49.8091V5.45521H51.1631ZM52.6004 5.45521V3.83981H51.2582V5.45521H52.6004ZM55.4867 5.45521V3.83981H54.1326V5.45521H55.4867ZM49.714 3.74479V2.12939H48.3718V3.74479H49.714ZM49.7259 2.03437V0.41897H48.3718V2.03437H49.7259ZM51.1631 2.03437V0.41897H49.8209V2.03437H51.1631ZM52.6004 2.03437V0.41897H51.2582V2.03437H52.6004ZM54.0495 2.03437V0.41897H52.6954V2.03437H54.0495ZM55.4867 2.03437V0.41897H54.1326V2.03437H55.4867ZM49.714 15.7177V14.1023H48.3718V15.7177H49.714ZM51.1631 15.7177V14.1023H49.8091V15.7177H51.1631ZM52.6004 15.7177V14.1023H51.2582V15.7177H52.6004ZM54.0376 15.7177V14.1023H52.6954V15.7177H54.0376ZM55.4867 15.7177V14.1023H54.1326V15.7177H55.4867ZM56.9121 14.0073V12.3919H55.5699V14.0073H56.9121ZM58.3612 14.0073V12.3919H57.0071V14.0073H58.3612ZM56.9121 12.2969V10.6815H55.5699V12.2969H56.9121ZM58.3612 12.2969V10.6815H57.0071V12.2969H58.3612ZM56.9121 10.5865V8.97108H55.5699V10.5865H56.9121ZM58.3612 10.5865V8.97108H57.0071V10.5865H58.3612ZM56.9121 8.87606V7.26066H55.5699V8.87606H56.9121ZM58.3612 8.87606V7.26066H57.0071V8.87606H58.3612ZM56.9121 7.16564V5.55024H55.5699V7.16564H56.9121ZM58.3612 7.16564V5.55024H57.0071V7.16564H58.3612ZM56.9121 5.45521V3.83981H55.5699V5.45521H56.9121ZM58.3612 5.45521V3.83981H57.0071V5.45521H58.3612ZM58.3612 3.74479V2.12939H57.0071V3.74479H58.3612ZM56.9239 2.03437V0.41897H55.5699V2.03437H56.9239ZM58.3612 2.03437V0.41897H57.0071V2.03437H58.3612ZM56.9121 15.7296V14.1142H55.5699V15.7296H56.9121ZM58.3612 15.7296V14.1142H57.0071V15.7296H58.3612ZM58.2253 14.0073V12.3919H56.8831V14.0073H58.2253ZM63.998 14.0073V12.3919H62.6439V14.0073H63.998ZM58.2253 12.2969V10.6815H56.8831V12.2969H58.2253ZM59.6744 12.2969V10.6815H58.3203V12.2969H59.6744ZM62.5489 12.2969V10.6815H61.2067V12.2969H62.5489ZM63.998 12.2969V10.6815H62.6439V12.2969H63.998ZM58.2253 10.5865V8.97108H56.8831V10.5865H58.2253ZM59.6744 10.5865V8.97108H58.3203V10.5865H59.6744ZM62.5489 10.5865V8.97108H61.2067V10.5865H62.5489ZM63.998 10.5865V8.97108H62.6439V10.5865H63.998ZM58.2253 8.87606V7.26066H56.8831V8.87606H58.2253ZM59.6744 8.87606V7.26066H58.3203V8.87606H59.6744ZM62.5489 8.87606V7.26066H61.2067V8.87606H62.5489ZM63.998 8.87606V7.26066H62.6439V8.87606H63.998ZM58.2253 7.16564V5.55024H56.8831V7.16564H58.2253ZM59.6744 7.16564V5.55024H58.3203V7.16564H59.6744ZM62.5489 7.16564V5.55024H61.2067V7.16564H62.5489ZM63.998 7.16564V5.55024H62.6439V7.16564H63.998ZM58.2253 5.45521V3.83981H56.8831V5.45521H58.2253ZM59.6744 5.45521V3.83981H58.3203V5.45521H59.6744ZM62.5489 5.45521V3.83981H61.2067V5.45521H62.5489ZM63.998 5.45521V3.83981H62.6439V5.45521H63.998ZM58.2253 3.74479V2.12939H56.8831V3.74479H58.2253ZM63.998 3.74479V2.12939H62.6439V3.74479H63.998ZM58.2372 2.03437V0.41897H56.8831V2.03437H58.2372ZM59.6744 2.03437V0.41897H58.3322V2.03437H59.6744ZM61.1116 2.03437V0.41897H59.7694V2.03437H61.1116ZM62.5608 2.03437V0.41897H61.2067V2.03437H62.5608ZM63.998 2.03437V0.41897H62.6439V2.03437H63.998ZM58.2253 15.7177V14.1023H56.8831V15.7177H58.2253ZM59.6744 15.7177V14.1023H58.3203V15.7177H59.6744ZM61.1116 15.7177V14.1023H59.7694V15.7177H61.1116ZM62.5489 15.7177V14.1023H61.2067V15.7177H62.5489ZM63.998 15.7177V14.1023H62.6439V15.7177H63.998ZM63.8715 14.0073V12.3919H62.5293V14.0073H63.8715ZM65.3206 14.0073V12.3919H63.9665V14.0073H65.3206ZM63.8715 12.2969V10.6815H62.5293V12.2969H63.8715ZM66.7578 12.2969V10.6815H65.4156V12.2969H66.7578ZM68.1951 12.2969V10.6815H66.8529V12.2969H68.1951ZM69.6442 12.2969V10.6815H68.2901V12.2969H69.6442ZM63.8715 10.5865V8.97108H62.5293V10.5865H63.8715ZM66.7578 10.5865V8.97108H65.4156V10.5865H66.7578ZM68.1951 10.5865V8.97108H66.8529V10.5865H68.1951ZM69.6442 10.5865V8.97108H68.2901V10.5865H69.6442ZM63.8715 8.87606V7.26066H62.5293V8.87606H63.8715ZM66.7578 8.87606V7.26066H65.4156V8.87606H66.7578ZM68.1951 8.87606V7.26066H66.8529V8.87606H68.1951ZM69.6442 8.87606V7.26066H68.2901V8.87606H69.6442ZM63.8715 7.16564V5.55024H62.5293V7.16564H63.8715ZM66.7578 7.16564V5.55024H65.4156V7.16564H66.7578ZM68.1951 7.16564V5.55024H66.8529V7.16564H68.1951ZM69.6442 7.16564V5.55024H68.2901V7.16564H69.6442ZM63.8715 5.45521V3.83981H62.5293V5.45521H63.8715ZM66.7578 5.45521V3.83981H65.4156V5.45521H66.7578ZM68.1951 5.45521V3.83981H66.8529V5.45521H68.1951ZM69.6442 5.45521V3.83981H68.2901V5.45521H69.6442ZM63.8715 3.74479V2.12939H62.5293V3.74479H63.8715ZM65.3206 3.74479V2.12939H63.9665V3.74479H65.3206ZM63.8834 2.03437V0.41897H62.5293V2.03437H63.8834ZM65.3206 2.03437V0.41897H63.9784V2.03437H65.3206ZM66.7578 2.03437V0.41897H65.4156V2.03437H66.7578ZM68.2069 2.03437V0.41897H66.8529V2.03437H68.2069ZM69.6442 2.03437V0.41897H68.2901V2.03437H69.6442ZM63.8715 15.7177V14.1023H62.5293V15.7177H63.8715ZM65.3206 15.7177V14.1023H63.9665V15.7177H65.3206ZM66.7578 15.7177V14.1023H65.4156V15.7177H66.7578ZM68.1951 15.7177V14.1023H66.8529V15.7177H68.1951ZM69.6442 15.7177V14.1023H68.2901V15.7177H69.6442ZM71.0695 14.0073V12.3919H69.7273V14.0073H71.0695ZM72.5186 14.0073V12.3919H71.1646V14.0073H72.5186ZM72.5186 12.2969V10.6815H71.1646V12.2969H72.5186ZM71.0695 10.5865V8.97108H69.7273V10.5865H71.0695ZM72.5186 10.5865V8.97108H71.1646V10.5865H72.5186ZM71.0695 8.87606V7.26066H69.7273V8.87606H71.0695ZM72.5186 8.87606V7.26066H71.1646V8.87606H72.5186ZM71.0695 7.16564V5.55024H69.7273V7.16564H71.0695ZM72.5186 7.16564V5.55024H71.1646V7.16564H72.5186ZM72.5186 5.45521V3.83981H71.1646V5.45521H72.5186ZM71.0695 3.74479V2.12939H69.7273V3.74479H71.0695ZM72.5186 3.74479V2.12939H71.1646V3.74479H72.5186ZM71.0814 2.03437V0.41897H69.7273V2.03437H71.0814ZM72.5186 2.03437V0.41897H71.1646V2.03437H72.5186ZM71.0695 15.7296V14.1142H69.7273V15.7296H71.0695ZM72.5186 15.7296V14.1142H71.1646V15.7296H72.5186ZM72.3828 14.0073V12.3919H71.0406V14.0073H72.3828ZM75.2691 14.0073V12.3919H73.9269V14.0073H75.2691ZM76.7064 14.0073V12.3919H75.3641V14.0073H76.7064ZM78.1555 14.0073V12.3919H76.8014V14.0073H78.1555ZM72.3828 12.2969V10.6815H71.0406V12.2969H72.3828ZM75.2691 12.2969V10.6815H73.9269V12.2969H75.2691ZM76.7064 12.2969V10.6815H75.3641V12.2969H76.7064ZM72.3828 10.5865V8.97108H71.0406V10.5865H72.3828ZM75.2691 10.5865V8.97108H73.9269V10.5865H75.2691ZM78.1555 10.5865V8.97108H76.8014V10.5865H78.1555ZM72.3828 8.87606V7.26066H71.0406V8.87606H72.3828ZM76.7064 8.87606V7.26066H75.3641V8.87606H76.7064ZM78.1555 8.87606V7.26066H76.8014V8.87606H78.1555ZM72.3828 7.16564V5.55024H71.0406V7.16564H72.3828ZM75.2691 7.16564V5.55024H73.9269V7.16564H75.2691ZM78.1555 7.16564V5.55024H76.8014V7.16564H78.1555ZM72.3828 5.45521V3.83981H71.0406V5.45521H72.3828ZM75.2691 5.45521V3.83981H73.9269V5.45521H75.2691ZM76.7064 5.45521V3.83981H75.3641V5.45521H76.7064ZM72.3828 3.74479V2.12939H71.0406V3.74479H72.3828ZM75.2691 3.74479V2.12939H73.9269V3.74479H75.2691ZM76.7064 3.74479V2.12939H75.3641V3.74479H76.7064ZM78.1555 3.74479V2.12939H76.8014V3.74479H78.1555ZM72.3947 2.03437V0.41897H71.0406V2.03437H72.3947ZM73.8319 2.03437V0.41897H72.4897V2.03437H73.8319ZM75.2691 2.03437V0.41897H73.9269V2.03437H75.2691ZM76.7182 2.03437V0.41897H75.3641V2.03437H76.7182ZM78.1555 2.03437V0.41897H76.8014V2.03437H78.1555ZM72.3828 15.7177V14.1023H71.0406V15.7177H72.3828ZM73.8319 15.7177V14.1023H72.4778V15.7177H73.8319ZM75.2691 15.7177V14.1023H73.9269V15.7177H75.2691ZM76.7064 15.7177V14.1023H75.3641V15.7177H76.7064ZM78.1555 15.7177V14.1023H76.8014V15.7177H78.1555ZM81.0299 14.0073V12.3919H79.6758V14.0073H81.0299ZM79.5808 12.2969V10.6815H78.2386V12.2969H79.5808ZM81.0299 12.2969V10.6815H79.6758V12.2969H81.0299ZM79.5808 10.5865V8.97108H78.2386V10.5865H79.5808ZM81.0299 10.5865V8.97108H79.6758V10.5865H81.0299ZM79.5808 8.87606V7.26066H78.2386V8.87606H79.5808ZM81.0299 8.87606V7.26066H79.6758V8.87606H81.0299ZM79.5808 7.16564V5.55024H78.2386V7.16564H79.5808ZM81.0299 7.16564V5.55024H79.6758V7.16564H81.0299ZM79.5808 5.45521V3.83981H78.2386V5.45521H79.5808ZM81.0299 5.45521V3.83981H79.6758V5.45521H81.0299ZM81.0299 3.74479V2.12939H79.6758V3.74479H81.0299ZM79.5927 2.03437V0.41897H78.2386V2.03437H79.5927ZM81.0299 2.03437V0.41897H79.6758V2.03437H81.0299ZM79.5808 15.7296V14.1142H78.2386V15.7296H79.5808ZM81.0299 15.7296V14.1142H79.6758V15.7296H81.0299ZM80.8941 14.0073V12.3919H79.5519V14.0073H80.8941ZM80.8941 12.2969V10.6815H79.5519V12.2969H80.8941ZM83.7804 12.2969V10.6815H82.4382V12.2969H83.7804ZM85.2176 12.2969V10.6815H83.8754V12.2969H85.2176ZM86.6667 12.2969V10.6815H85.3127V12.2969H86.6667ZM80.8941 10.5865V8.97108H79.5519V10.5865H80.8941ZM83.7804 10.5865V8.97108H82.4382V10.5865H83.7804ZM85.2176 10.5865V8.97108H83.8754V10.5865H85.2176ZM86.6667 10.5865V8.97108H85.3127V10.5865H86.6667ZM80.8941 8.87606V7.26066H79.5519V8.87606H80.8941ZM80.8941 7.16564V5.55024H79.5519V7.16564H80.8941ZM83.7804 7.16564V5.55024H82.4382V7.16564H83.7804ZM85.2176 7.16564V5.55024H83.8754V7.16564H85.2176ZM86.6667 7.16564V5.55024H85.3127V7.16564H86.6667ZM80.8941 5.45521V3.83981H79.5519V5.45521H80.8941ZM83.7804 5.45521V3.83981H82.4382V5.45521H83.7804ZM85.2176 5.45521V3.83981H83.8754V5.45521H85.2176ZM86.6667 5.45521V3.83981H85.3127V5.45521H86.6667ZM80.8941 3.74479V2.12939H79.5519V3.74479H80.8941ZM80.9059 2.03437V0.41897H79.5519V2.03437H80.9059ZM82.3432 2.03437V0.41897H81.001V2.03437H82.3432ZM83.7804 2.03437V0.41897H82.4382V2.03437H83.7804ZM85.2295 2.03437V0.41897H83.8754V2.03437H85.2295ZM86.6667 2.03437V0.41897H85.3127V2.03437H86.6667ZM80.8941 15.7177V14.1023H79.5519V15.7177H80.8941ZM82.3432 15.7177V14.1023H80.9891V15.7177H82.3432ZM83.7804 15.7177V14.1023H82.4382V15.7177H83.7804ZM85.2176 15.7177V14.1023H83.8754V15.7177H85.2176ZM86.6667 15.7177V14.1023H85.3127V15.7177H86.6667ZM89.5412 14.0073V12.3919H88.1871V14.0073H89.5412ZM88.0921 12.2969V10.6815H86.7499V12.2969H88.0921ZM89.5412 12.2969V10.6815H88.1871V12.2969H89.5412ZM88.0921 10.5865V8.97108H86.7499V10.5865H88.0921ZM89.5412 10.5865V8.97108H88.1871V10.5865H89.5412ZM88.0921 8.87606V7.26066H86.7499V8.87606H88.0921ZM89.5412 8.87606V7.26066H88.1871V8.87606H89.5412ZM88.0921 7.16564V5.55024H86.7499V7.16564H88.0921ZM89.5412 7.16564V5.55024H88.1871V7.16564H89.5412ZM88.0921 5.45521V3.83981H86.7499V5.45521H88.0921ZM89.5412 5.45521V3.83981H88.1871V5.45521H89.5412ZM89.5412 3.74479V2.12939H88.1871V3.74479H89.5412ZM88.104 2.03437V0.41897H86.7499V2.03437H88.104ZM89.5412 2.03437V0.41897H88.1871V2.03437H89.5412ZM88.0921 15.7296V14.1142H86.7499V15.7296H88.0921ZM89.5412 15.7296V14.1142H88.1871V15.7296H89.5412ZM89.4053 14.0073V12.3919H88.0631V14.0073H89.4053ZM90.8545 14.0073V12.3919H89.5004V14.0073H90.8545ZM92.2917 14.0073V12.3919H90.9495V14.0073H92.2917ZM95.178 14.0073V12.3919H93.8239V14.0073H95.178ZM89.4053 12.2969V10.6815H88.0631V12.2969H89.4053ZM90.8545 12.2969V10.6815H89.5004V12.2969H90.8545ZM92.2917 12.2969V10.6815H90.9495V12.2969H92.2917ZM95.178 12.2969V10.6815H93.8239V12.2969H95.178ZM89.4053 10.5865V8.97108H88.0631V10.5865H89.4053ZM90.8545 10.5865V8.97108H89.5004V10.5865H90.8545ZM92.2917 10.5865V8.97108H90.9495V10.5865H92.2917ZM95.178 10.5865V8.97108H93.8239V10.5865H95.178ZM89.4053 8.87606V7.26066H88.0631V8.87606H89.4053ZM90.8545 8.87606V7.26066H89.5004V8.87606H90.8545ZM92.2917 8.87606V7.26066H90.9495V8.87606H92.2917ZM95.178 8.87606V7.26066H93.8239V8.87606H95.178ZM89.4053 7.16564V5.55024H88.0631V7.16564H89.4053ZM90.8545 7.16564V5.55024H89.5004V7.16564H90.8545ZM92.2917 7.16564V5.55024H90.9495V7.16564H92.2917ZM95.178 7.16564V5.55024H93.8239V7.16564H95.178ZM89.4053 5.45521V3.83981H88.0631V5.45521H89.4053ZM90.8545 5.45521V3.83981H89.5004V5.45521H90.8545ZM92.2917 5.45521V3.83981H90.9495V5.45521H92.2917ZM95.178 5.45521V3.83981H93.8239V5.45521H95.178ZM89.4053 3.74479V2.12939H88.0631V3.74479H89.4053ZM89.4172 2.03437V0.41897H88.0631V2.03437H89.4172ZM90.8545 2.03437V0.41897H89.5122V2.03437H90.8545ZM92.2917 2.03437V0.41897H90.9495V2.03437H92.2917ZM93.7408 2.03437V0.41897H92.3867V2.03437H93.7408ZM95.178 2.03437V0.41897H93.8239V2.03437H95.178ZM89.4053 15.7177V14.1023H88.0631V15.7177H89.4053ZM90.8545 15.7177V14.1023H89.5004V15.7177H90.8545ZM92.2917 15.7177V14.1023H90.9495V15.7177H92.2917ZM93.7289 15.7177V14.1023H92.3867V15.7177H93.7289ZM95.178 15.7177V14.1023H93.8239V15.7177H95.178ZM96.6034 14.0073V12.3919H95.2612V14.0073H96.6034ZM98.0525 14.0073V12.3919H96.6984V14.0073H98.0525ZM96.6034 12.2969V10.6815H95.2612V12.2969H96.6034ZM98.0525 12.2969V10.6815H96.6984V12.2969H98.0525ZM96.6034 10.5865V8.97108H95.2612V10.5865H96.6034ZM98.0525 10.5865V8.97108H96.6984V10.5865H98.0525ZM96.6034 8.87606V7.26066H95.2612V8.87606H96.6034ZM98.0525 8.87606V7.26066H96.6984V8.87606H98.0525ZM96.6034 7.16564V5.55024H95.2612V7.16564H96.6034ZM98.0525 7.16564V5.55024H96.6984V7.16564H98.0525ZM96.6034 5.45521V3.83981H95.2612V5.45521H96.6034ZM98.0525 5.45521V3.83981H96.6984V5.45521H98.0525ZM98.0525 3.74479V2.12939H96.6984V3.74479H98.0525ZM96.6153 2.03437V0.41897H95.2612V2.03437H96.6153ZM98.0525 2.03437V0.41897H96.6984V2.03437H98.0525ZM96.6034 15.7296V14.1142H95.2612V15.7296H96.6034ZM98.0525 15.7296V14.1142H96.6984V15.7296H98.0525ZM97.9166 14.0073V12.3919H96.5744V14.0073H97.9166ZM97.9166 12.2969V10.6815H96.5744V12.2969H97.9166ZM99.3657 12.2969V10.6815H98.0116V12.2969H99.3657ZM100.803 12.2969V10.6815H99.4608V12.2969H100.803ZM102.24 12.2969V10.6815H100.898V12.2969H102.24ZM103.689 12.2969V10.6815H102.335V12.2969H103.689ZM97.9166 10.5865V8.97108H96.5744V10.5865H97.9166ZM99.3657 10.5865V8.97108H98.0116V10.5865H99.3657ZM100.803 10.5865V8.97108H99.4608V10.5865H100.803ZM102.24 10.5865V8.97108H100.898V10.5865H102.24ZM103.689 10.5865V8.97108H102.335V10.5865H103.689ZM97.9166 8.87606V7.26066H96.5744V8.87606H97.9166ZM99.3657 8.87606V7.26066H98.0116V8.87606H99.3657ZM97.9166 7.16564V5.55024H96.5744V7.16564H97.9166ZM100.803 7.16564V5.55024H99.4608V7.16564H100.803ZM102.24 7.16564V5.55024H100.898V7.16564H102.24ZM103.689 7.16564V5.55024H102.335V7.16564H103.689ZM97.9166 5.45521V3.83981H96.5744V5.45521H97.9166ZM100.803 5.45521V3.83981H99.4608V5.45521H100.803ZM102.24 5.45521V3.83981H100.898V5.45521H102.24ZM103.689 5.45521V3.83981H102.335V5.45521H103.689ZM97.9166 3.74479V2.12939H96.5744V3.74479H97.9166ZM99.3657 3.74479V2.12939H98.0116V3.74479H99.3657ZM97.9285 2.03437V0.41897H96.5744V2.03437H97.9285ZM99.3657 2.03437V0.41897H98.0235V2.03437H99.3657ZM100.803 2.03437V0.41897H99.4608V2.03437H100.803ZM102.252 2.03437V0.41897H100.898V2.03437H102.252ZM103.689 2.03437V0.41897H102.335V2.03437H103.689ZM97.9166 15.7177V14.1023H96.5744V15.7177H97.9166ZM99.3657 15.7177V14.1023H98.0116V15.7177H99.3657ZM100.803 15.7177V14.1023H99.4608V15.7177H100.803ZM102.24 15.7177V14.1023H100.898V15.7177H102.24ZM103.689 15.7177V14.1023H102.335V15.7177H103.689ZM105.115 14.0073V12.3919H103.772V14.0073H105.115ZM106.564 14.0073V12.3919H105.21V14.0073H106.564ZM106.564 12.2969V10.6815H105.21V12.2969H106.564ZM106.564 10.5865V8.97108H105.21V10.5865H106.564ZM105.115 8.87606V7.26066H103.772V8.87606H105.115ZM106.564 8.87606V7.26066H105.21V8.87606H106.564ZM105.115 7.16564V5.55024H103.772V7.16564H105.115ZM106.564 7.16564V5.55024H105.21V7.16564H106.564ZM105.115 5.45521V3.83981H103.772V5.45521H105.115ZM106.564 5.45521V3.83981H105.21V5.45521H106.564ZM106.564 3.74479V2.12939H105.21V3.74479H106.564ZM105.127 2.03437V0.41897H103.772V2.03437H105.127ZM106.564 2.03437V0.41897H105.21V2.03437H106.564ZM105.115 15.7296V14.1142H103.772V15.7296H105.115ZM106.564 15.7296V14.1142H105.21V15.7296H106.564ZM106.428 14.0073V12.3919H105.086V14.0073H106.428ZM107.877 14.0073V12.3919H106.523V14.0073H107.877ZM106.428 12.2969V10.6815H105.086V12.2969H106.428ZM107.877 12.2969V10.6815H106.523V12.2969H107.877ZM106.428 10.5865V8.97108H105.086V10.5865H106.428ZM107.877 10.5865V8.97108H106.523V10.5865H107.877ZM106.428 8.87606V7.26066H105.086V8.87606H106.428ZM107.877 8.87606V7.26066H106.523V8.87606H107.877ZM106.428 7.16564V5.55024H105.086V7.16564H106.428ZM107.877 7.16564V5.55024H106.523V7.16564H107.877ZM106.428 5.45521V3.83981H105.086V5.45521H106.428ZM107.877 5.45521V3.83981H106.523V5.45521H107.877ZM106.428 3.74479V2.12939H105.086V3.74479H106.428ZM107.877 3.74479V2.12939H106.523V3.74479H107.877ZM106.44 2.03437V0.41897H105.086V2.03437H106.44ZM107.877 2.03437V0.41897H106.535V2.03437H107.877ZM106.428 15.7177V14.1023H105.086V15.7177H106.428ZM107.877 15.7177V14.1023H106.523V15.7177H107.877ZM109.186 14.0073V12.3919H107.844V14.0073H109.186ZM112.072 14.0073V12.3919H110.73V14.0073H112.072ZM113.509 14.0073V12.3919H112.167V14.0073H113.509ZM114.958 14.0073V12.3919H113.604V14.0073H114.958ZM109.186 12.2969V10.6815H107.844V12.2969H109.186ZM112.072 12.2969V10.6815H110.73V12.2969H112.072ZM113.509 12.2969V10.6815H112.167V12.2969H113.509ZM114.958 12.2969V10.6815H113.604V12.2969H114.958ZM109.186 10.5865V8.97108H107.844V10.5865H109.186ZM112.072 10.5865V8.97108H110.73V10.5865H112.072ZM113.509 10.5865V8.97108H112.167V10.5865H113.509ZM109.186 8.87606V7.26066H107.844V8.87606H109.186ZM112.072 8.87606V7.26066H110.73V8.87606H112.072ZM114.958 8.87606V7.26066H113.604V8.87606H114.958ZM109.186 7.16564V5.55024H107.844V7.16564H109.186ZM113.509 7.16564V5.55024H112.167V7.16564H113.509ZM114.958 7.16564V5.55024H113.604V7.16564H114.958ZM109.186 5.45521V3.83981H107.844V5.45521H109.186ZM112.072 5.45521V3.83981H110.73V5.45521H112.072ZM113.509 5.45521V3.83981H112.167V5.45521H113.509ZM114.958 5.45521V3.83981H113.604V5.45521H114.958ZM109.186 3.74479V2.12939H107.844V3.74479H109.186ZM112.072 3.74479V2.12939H110.73V3.74479H112.072ZM113.509 3.74479V2.12939H112.167V3.74479H113.509ZM114.958 3.74479V2.12939H113.604V3.74479H114.958ZM109.198 2.03437V0.41897H107.844V2.03437H109.198ZM110.635 2.03437V0.41897H109.293V2.03437H110.635ZM112.072 2.03437V0.41897H110.73V2.03437H112.072ZM113.521 2.03437V0.41897H112.167V2.03437H113.521ZM114.958 2.03437V0.41897H113.604V2.03437H114.958ZM109.186 15.7177V14.1023H107.844V15.7177H109.186ZM110.635 15.7177V14.1023H109.281V15.7177H110.635ZM112.072 15.7177V14.1023H110.73V15.7177H112.072ZM113.509 15.7177V14.1023H112.167V15.7177H113.509ZM114.958 15.7177V14.1023H113.604V15.7177H114.958ZM117.833 14.0073V12.3919H116.479V14.0073H117.833ZM117.833 12.2969V10.6815H116.479V12.2969H117.833ZM117.833 10.5865V8.97108H116.479V10.5865H117.833ZM117.833 8.87606V7.26066H116.479V8.87606H117.833ZM117.833 7.16564V5.55024H116.479V7.16564H117.833ZM117.833 5.45521V3.83981H116.479V5.45521H117.833ZM117.833 3.74479V2.12939H116.479V3.74479H117.833ZM116.396 2.03437V0.41897H115.042V2.03437H116.396ZM117.833 2.03437V0.41897H116.479V2.03437H117.833ZM116.384 15.7296V14.1142H115.042V15.7296H116.384ZM117.833 15.7296V14.1142H116.479V15.7296H117.833ZM117.697 14.0073V12.3919H116.355V14.0073H117.697ZM119.146 14.0073V12.3919H117.792V14.0073H119.146ZM117.697 12.2969V10.6815H116.355V12.2969H117.697ZM120.583 12.2969V10.6815H119.241V12.2969H120.583ZM122.021 12.2969V10.6815H120.678V12.2969H122.021ZM123.47 12.2969V10.6815H122.116V12.2969H123.47ZM117.697 10.5865V8.97108H116.355V10.5865H117.697ZM120.583 10.5865V8.97108H119.241V10.5865H120.583ZM122.021 10.5865V8.97108H120.678V10.5865H122.021ZM123.47 10.5865V8.97108H122.116V10.5865H123.47ZM117.697 8.87606V7.26066H116.355V8.87606H117.697ZM120.583 8.87606V7.26066H119.241V8.87606H120.583ZM122.021 8.87606V7.26066H120.678V8.87606H122.021ZM123.47 8.87606V7.26066H122.116V8.87606H123.47ZM117.697 7.16564V5.55024H116.355V7.16564H117.697ZM120.583 7.16564V5.55024H119.241V7.16564H120.583ZM122.021 7.16564V5.55024H120.678V7.16564H122.021ZM123.47 7.16564V5.55024H122.116V7.16564H123.47ZM117.697 5.45521V3.83981H116.355V5.45521H117.697ZM120.583 5.45521V3.83981H119.241V5.45521H120.583ZM122.021 5.45521V3.83981H120.678V5.45521H122.021ZM123.47 5.45521V3.83981H122.116V5.45521H123.47ZM117.697 3.74479V2.12939H116.355V3.74479H117.697ZM119.146 3.74479V2.12939H117.792V3.74479H119.146ZM117.709 2.03437V0.41897H116.355V2.03437H117.709ZM119.146 2.03437V0.41897H117.804V2.03437H119.146ZM120.583 2.03437V0.41897H119.241V2.03437H120.583ZM122.033 2.03437V0.41897H120.678V2.03437H122.033ZM123.47 2.03437V0.41897H122.116V2.03437H123.47ZM117.697 15.7177V14.1023H116.355V15.7177H117.697ZM119.146 15.7177V14.1023H117.792V15.7177H119.146ZM120.583 15.7177V14.1023H119.241V15.7177H120.583ZM122.021 15.7177V14.1023H120.678V15.7177H122.021ZM123.47 15.7177V14.1023H122.116V15.7177H123.47ZM124.895 14.0073V12.3919H123.553V14.0073H124.895ZM126.344 14.0073V12.3919H124.99V14.0073H126.344ZM126.344 12.2969V10.6815H124.99V12.2969H126.344ZM126.344 10.5865V8.97108H124.99V10.5865H126.344ZM126.344 8.87606V7.26066H124.99V8.87606H126.344ZM126.344 7.16564V5.55024H124.99V7.16564H126.344ZM126.344 5.45521V3.83981H124.99V5.45521H126.344ZM124.895 3.74479V2.12939H123.553V3.74479H124.895ZM126.344 3.74479V2.12939H124.99V3.74479H126.344ZM124.907 2.03437V0.41897H123.553V2.03437H124.907ZM126.344 2.03437V0.41897H124.99V2.03437H126.344ZM124.895 15.7296V14.1142H123.553V15.7296H124.895ZM126.344 15.7296V14.1142H124.99V15.7296H126.344ZM126.208 14.0073V12.3919H124.866V14.0073H126.208ZM127.657 14.0073V12.3919H126.303V14.0073H127.657ZM130.532 14.0073V12.3919H129.19V14.0073H130.532ZM126.208 12.2969V10.6815H124.866V12.2969H126.208ZM126.208 10.5865V8.97108H124.866V10.5865H126.208ZM129.095 10.5865V8.97108H127.753V10.5865H129.095ZM131.981 10.5865V8.97108H130.627V10.5865H131.981ZM126.208 8.87606V7.26066H124.866V8.87606H126.208ZM129.095 8.87606V7.26066H127.753V8.87606H129.095ZM131.981 8.87606V7.26066H130.627V8.87606H131.981ZM126.208 7.16564V5.55024H124.866V7.16564H126.208ZM129.095 7.16564V5.55024H127.753V7.16564H129.095ZM130.532 7.16564V5.55024H129.19V7.16564H130.532ZM131.981 7.16564V5.55024H130.627V7.16564H131.981ZM126.208 5.45521V3.83981H124.866V5.45521H126.208ZM129.095 5.45521V3.83981H127.753V5.45521H129.095ZM130.532 5.45521V3.83981H129.19V5.45521H130.532ZM131.981 5.45521V3.83981H130.627V5.45521H131.981ZM126.208 3.74479V2.12939H124.866V3.74479H126.208ZM129.095 3.74479V2.12939H127.753V3.74479H129.095ZM130.532 3.74479V2.12939H129.19V3.74479H130.532ZM131.981 3.74479V2.12939H130.627V3.74479H131.981ZM126.22 2.03437V0.41897H124.866V2.03437H126.22ZM127.657 2.03437V0.41897H126.315V2.03437H127.657ZM129.095 2.03437V0.41897H127.753V2.03437H129.095ZM130.544 2.03437V0.41897H129.19V2.03437H130.544ZM131.981 2.03437V0.41897H130.627V2.03437H131.981ZM126.208 15.7177V14.1023H124.866V15.7177H126.208ZM127.657 15.7177V14.1023H126.303V15.7177H127.657ZM129.095 15.7177V14.1023H127.753V15.7177H129.095ZM130.532 15.7177V14.1023H129.19V15.7177H130.532ZM131.981 15.7177V14.1023H130.627V15.7177H131.981ZM133.406 14.0073V12.3919H132.064V14.0073H133.406ZM134.856 14.0073V12.3919H133.501V14.0073H134.856ZM134.856 12.2969V10.6815H133.501V12.2969H134.856ZM134.856 10.5865V8.97108H133.501V10.5865H134.856ZM134.856 8.87606V7.26066H133.501V8.87606H134.856ZM134.856 7.16564V5.55024H133.501V7.16564H134.856ZM134.856 5.45521V3.83981H133.501V5.45521H134.856ZM134.856 3.74479V2.12939H133.501V3.74479H134.856ZM133.418 2.03437V0.41897H132.064V2.03437H133.418ZM134.856 2.03437V0.41897H133.501V2.03437H134.856ZM133.406 15.7296V14.1142H132.064V15.7296H133.406ZM134.856 15.7296V14.1142H133.501V15.7296H134.856Z" fill="black"/>
<path d="M164.835 13.9985V12.5178H163.605V13.9985H164.835ZM166.164 13.9985V12.5178H164.922V13.9985H166.164ZM167.481 13.9985V12.5178H166.251V13.9985H167.481ZM168.799 13.9985V12.5178H167.568V13.9985H168.799ZM164.835 12.4306V10.9499H163.605V12.4306H164.835ZM170.127 12.4306V10.9499H168.886V12.4306H170.127ZM164.835 10.8628V9.38198H163.605V10.8628H164.835ZM170.127 10.8628V9.38198H168.886V10.8628H170.127ZM164.835 9.29487V7.81409H163.605V9.29487H164.835ZM166.164 9.29487V7.81409H164.922V9.29487H166.164ZM167.481 9.29487V7.81409H166.251V9.29487H167.481ZM168.799 9.29487V7.81409H167.568V9.29487H168.799ZM164.835 7.72699V6.24621H163.605V7.72699H164.835ZM170.127 7.72699V6.24621H168.886V7.72699H170.127ZM164.835 6.1591V4.67832H163.605V6.1591H164.835ZM170.127 6.1591V4.67832H168.886V6.1591H170.127ZM164.835 4.59121V3.11043H163.605V4.59121H164.835ZM166.164 4.59121V3.11043H164.922V4.59121H166.164ZM167.481 4.59121V3.11043H166.251V4.59121H167.481ZM168.799 4.59121V3.11043H167.568V4.59121H168.799ZM173.966 13.9985V12.5178H172.724V13.9985H173.966ZM175.283 13.9985V12.5178H174.053V13.9985H175.283ZM176.601 13.9985V12.5178H175.37V13.9985H176.601ZM172.637 12.4306V10.9499H171.407V12.4306H172.637ZM177.929 12.4306V10.9499H176.688V12.4306H177.929ZM172.637 10.8628V9.38198H171.407V10.8628H172.637ZM177.929 10.8628V9.38198H176.688V10.8628H177.929ZM172.637 9.29487V7.81409H171.407V9.29487H172.637ZM177.929 9.29487V7.81409H176.688V9.29487H177.929ZM172.637 7.72699V6.24621H171.407V7.72699H172.637ZM177.929 7.72699V6.24621H176.688V7.72699H177.929ZM172.637 6.1591V4.67832H171.407V6.1591H172.637ZM177.929 6.1591V4.67832H176.688V6.1591H177.929ZM172.637 4.59121V3.11043H171.407V4.59121H172.637ZM177.929 4.59121V3.11043H176.688V4.59121H177.929ZM183.085 13.9985V12.5178H181.855V13.9985H183.085ZM183.085 12.4306V10.9499H181.855V12.4306H183.085ZM183.085 10.8628V9.38198H181.855V10.8628H183.085ZM183.085 9.29487V7.81409H181.855V9.29487H183.085ZM181.768 7.72699V6.24621H180.526V7.72699H181.768ZM184.403 7.72699V6.24621H183.172V7.72699H184.403ZM180.439 6.1591V4.67832H179.209V6.1591H180.439ZM185.731 6.1591V4.67832H184.49V6.1591H185.731ZM180.439 4.59121V3.11043H179.209V4.59121H180.439ZM185.731 4.59121V3.11043H184.49V4.59121H185.731ZM198.689 13.9985V12.5178H197.459V13.9985H198.689ZM198.689 12.4306V10.9499H197.459V12.4306H198.689ZM198.689 10.8628V9.38198H197.459V10.8628H198.689ZM198.689 9.29487V7.81409H197.459V9.29487H198.689ZM198.689 7.72699V6.24621H197.459V7.72699H198.689ZM198.689 6.1591V4.67832H197.459V6.1591H198.689ZM196.043 4.59121V3.11043H194.813V4.59121H196.043ZM197.372 4.59121V3.11043H196.13V4.59121H197.372ZM198.689 4.59121V3.11043H197.459V4.59121H198.689ZM200.007 4.59121V3.11043H198.776V4.59121H200.007ZM201.335 4.59121V3.11043H200.094V4.59121H201.335ZM203.845 13.9985V12.5178H202.615V13.9985H203.845ZM205.174 13.9985V12.5178H203.932V13.9985H205.174ZM206.491 13.9985V12.5178H205.261V13.9985H206.491ZM205.174 12.4306V10.9499H203.932V12.4306H205.174ZM205.174 10.8628V9.38198H203.932V10.8628H205.174ZM205.174 9.29487V7.81409H203.932V9.29487H205.174ZM205.174 7.72699V6.24621H203.932V7.72699H205.174ZM205.174 6.1591V4.67832H203.932V6.1591H205.174ZM203.845 4.59121V3.11043H202.615V4.59121H203.845ZM205.174 4.59121V3.11043H203.932V4.59121H205.174ZM206.491 4.59121V3.11043H205.261V4.59121H206.491ZM210.349 13.9985V12.5178H209.108V13.9985H210.349ZM211.667 13.9985V12.5178H210.437V13.9985H211.667ZM212.984 13.9985V12.5178H211.754V13.9985H212.984ZM209.021 12.4306V10.9499H207.791V12.4306H209.021ZM214.313 12.4306V10.9499H213.071V12.4306H214.313ZM209.021 10.8628V9.38198H207.791V10.8628H209.021ZM209.021 9.29487V7.81409H207.791V9.29487H209.021ZM209.021 7.72699V6.24621H207.791V7.72699H209.021ZM209.021 6.1591V4.67832H207.791V6.1591H209.021ZM214.313 6.1591V4.67832H213.071V6.1591H214.313ZM210.349 4.59121V3.11043H209.108V4.59121H210.349ZM211.667 4.59121V3.11043H210.437V4.59121H211.667ZM212.984 4.59121V3.11043H211.754V4.59121H212.984ZM216.823 13.9985V12.5178H215.593V13.9985H216.823ZM222.115 13.9985V12.5178H220.873V13.9985H222.115ZM216.823 12.4306V10.9499H215.593V12.4306H216.823ZM220.786 12.4306V10.9499H219.556V12.4306H220.786ZM216.823 10.8628V9.38198H215.593V10.8628H216.823ZM219.469 10.8628V9.38198H218.239V10.8628H219.469ZM216.823 9.29487V7.81409H215.593V9.29487H216.823ZM218.151 9.29487V7.81409H216.91V9.29487H218.151ZM216.823 7.72699V6.24621H215.593V7.72699H216.823ZM219.469 7.72699V6.24621H218.239V7.72699H219.469ZM216.823 6.1591V4.67832H215.593V6.1591H216.823ZM220.786 6.1591V4.67832H219.556V6.1591H220.786ZM216.823 4.59121V3.11043H215.593V4.59121H216.823ZM222.115 4.59121V3.11043H220.873V4.59121H222.115ZM224.625 13.9985V12.5178H223.395V13.9985H224.625ZM225.953 13.9985V12.5178H224.712V13.9985H225.953ZM227.271 13.9985V12.5178H226.041V13.9985H227.271ZM228.588 13.9985V12.5178H227.358V13.9985H228.588ZM229.917 13.9985V12.5178H228.675V13.9985H229.917ZM224.625 12.4306V10.9499H223.395V12.4306H224.625ZM224.625 10.8628V9.38198H223.395V10.8628H224.625ZM224.625 9.29487V7.81409H223.395V9.29487H224.625ZM225.953 9.29487V7.81409H224.712V9.29487H225.953ZM227.271 9.29487V7.81409H226.041V9.29487H227.271ZM228.588 9.29487V7.81409H227.358V9.29487H228.588ZM224.625 7.72699V6.24621H223.395V7.72699H224.625ZM224.625 6.1591V4.67832H223.395V6.1591H224.625ZM224.625 4.59121V3.11043H223.395V4.59121H224.625ZM225.953 4.59121V3.11043H224.712V4.59121H225.953ZM227.271 4.59121V3.11043H226.041V4.59121H227.271ZM228.588 4.59121V3.11043H227.358V4.59121H228.588ZM229.917 4.59121V3.11043H228.675V4.59121H229.917ZM235.073 13.9985V12.5178H233.843V13.9985H235.073ZM235.073 12.4306V10.9499H233.843V12.4306H235.073ZM235.073 10.8628V9.38198H233.843V10.8628H235.073ZM235.073 9.29487V7.81409H233.843V9.29487H235.073ZM235.073 7.72699V6.24621H233.843V7.72699H235.073ZM235.073 6.1591V4.67832H233.843V6.1591H235.073ZM232.427 4.59121V3.11043H231.197V4.59121H232.427ZM233.755 4.59121V3.11043H232.514V4.59121H233.755ZM235.073 4.59121V3.11043H233.843V4.59121H235.073ZM236.39 4.59121V3.11043H235.16V4.59121H236.39ZM237.719 4.59121V3.11043H236.477V4.59121H237.719ZM240.229 13.9985V12.5178H238.999V13.9985H240.229ZM241.557 13.9985V12.5178H240.316V13.9985H241.557ZM242.875 13.9985V12.5178H241.645V13.9985H242.875ZM244.192 13.9985V12.5178H242.962V13.9985H244.192ZM245.521 12.4306V10.9499H244.279V12.4306H245.521ZM245.521 10.8628V9.38198H244.279V10.8628H245.521ZM241.557 9.29487V7.81409H240.316V9.29487H241.557ZM242.875 9.29487V7.81409H241.645V9.29487H242.875ZM244.192 9.29487V7.81409H242.962V9.29487H244.192ZM240.229 7.72699V6.24621H238.999V7.72699H240.229ZM240.229 6.1591V4.67832H238.999V6.1591H240.229ZM241.557 4.59121V3.11043H240.316V4.59121H241.557ZM242.875 4.59121V3.11043H241.645V4.59121H242.875ZM244.192 4.59121V3.11043H242.962V4.59121H244.192ZM245.521 4.59121V3.11043H244.279V4.59121H245.521ZM255.833 13.9985V12.5178H254.603V13.9985H255.833ZM261.125 13.9985V12.5178H259.883V13.9985H261.125ZM255.833 12.4306V10.9499H254.603V12.4306H255.833ZM261.125 12.4306V10.9499H259.883V12.4306H261.125ZM255.833 10.8628V9.38198H254.603V10.8628H255.833ZM259.796 10.8628V9.38198H258.566V10.8628H259.796ZM261.125 10.8628V9.38198H259.883V10.8628H261.125ZM255.833 9.29487V7.81409H254.603V9.29487H255.833ZM258.479 9.29487V7.81409H257.249V9.29487H258.479ZM261.125 9.29487V7.81409H259.883V9.29487H261.125ZM255.833 7.72699V6.24621H254.603V7.72699H255.833ZM257.161 7.72699V6.24621H255.92V7.72699H257.161ZM261.125 7.72699V6.24621H259.883V7.72699H261.125ZM255.833 6.1591V4.67832H254.603V6.1591H255.833ZM261.125 6.1591V4.67832H259.883V6.1591H261.125ZM255.833 4.59121V3.11043H254.603V4.59121H255.833ZM261.125 4.59121V3.11043H259.883V4.59121H261.125ZM264.963 13.9985V12.5178H263.722V13.9985H264.963ZM266.281 13.9985V12.5178H265.051V13.9985H266.281ZM267.598 13.9985V12.5178H266.368V13.9985H267.598ZM263.635 12.4306V10.9499H262.405V12.4306H263.635ZM268.927 12.4306V10.9499H267.685V12.4306H268.927ZM263.635 10.8628V9.38198H262.405V10.8628H263.635ZM268.927 10.8628V9.38198H267.685V10.8628H268.927ZM263.635 9.29487V7.81409H262.405V9.29487H263.635ZM268.927 9.29487V7.81409H267.685V9.29487H268.927ZM263.635 7.72699V6.24621H262.405V7.72699H263.635ZM268.927 7.72699V6.24621H267.685V7.72699H268.927ZM263.635 6.1591V4.67832H262.405V6.1591H263.635ZM268.927 6.1591V4.67832H267.685V6.1591H268.927ZM264.963 4.59121V3.11043H263.722V4.59121H264.963ZM266.281 4.59121V3.11043H265.051V4.59121H266.281ZM267.598 4.59121V3.11043H266.368V4.59121H267.598ZM272.765 13.9985V12.5178H271.524V13.9985H272.765ZM275.4 13.9985V12.5178H274.17V13.9985H275.4ZM271.437 12.4306V10.9499H270.207V12.4306H271.437ZM272.765 12.4306V10.9499H271.524V12.4306H272.765ZM274.083 12.4306V10.9499H272.853V12.4306H274.083ZM275.4 12.4306V10.9499H274.17V12.4306H275.4ZM276.729 12.4306V10.9499H275.487V12.4306H276.729ZM271.437 10.8628V9.38198H270.207V10.8628H271.437ZM274.083 10.8628V9.38198H272.853V10.8628H274.083ZM276.729 10.8628V9.38198H275.487V10.8628H276.729ZM271.437 9.29487V7.81409H270.207V9.29487H271.437ZM274.083 9.29487V7.81409H272.853V9.29487H274.083ZM276.729 9.29487V7.81409H275.487V9.29487H276.729ZM271.437 7.72699V6.24621H270.207V7.72699H271.437ZM276.729 7.72699V6.24621H275.487V7.72699H276.729ZM271.437 6.1591V4.67832H270.207V6.1591H271.437ZM276.729 6.1591V4.67832H275.487V6.1591H276.729ZM271.437 4.59121V3.11043H270.207V4.59121H271.437ZM276.729 4.59121V3.11043H275.487V4.59121H276.729Z" fill="black"/>
<path d="M143.808 7.36869H145.266V5.90904H146.724V4.44939H148.181V2.98975H149.639V4.44939H151.097V5.90904H152.555V7.36869H154.013V8.82834H152.555V10.288H151.097V11.7476H149.639V13.2073H148.181V11.7476H146.724V10.288H145.266V8.82834H143.808V7.36869Z" fill="black"/>
<path d="M0.283203 7.36869H1.74098V5.90904H3.19876V4.44939H4.65654V2.98975H6.11432V4.44939H7.5721V5.90904H9.02988V7.36869H10.4877V8.82834H9.02988V10.288H7.5721V11.7476H6.11432V13.2073H4.65654V11.7476H3.19876V10.288H1.74098V8.82834H0.283203V7.36869Z" fill="black"/>
</svg>
