<svg viewBox="0 0 1488 914" fill="none" xmlns="http://www.w3.org/2000/svg">
<path d="M96.9824 0.839844H153.554V913.161H104.579L57.0588 436.525V913.161H0.810059V0.839844H53.3412L96.9824 445.756V0.839844Z" fill="white"/>
<path d="M154.522 914H103.931L57.8651 452.636V913.832H0V0H53.9859L96.1724 429.308V0H154.361V914H154.522ZM105.386 912.322H152.906V1.6783H97.9504V445.755L96.334 445.923L52.6928 1.84613H1.61634V912.49H56.2487V436.357L57.8651 436.189L105.386 912.322Z" fill="white"/>
<path d="M182.805 456.302C182.805 182.262 221.919 0.272949 280.589 0.272949C337.965 0.272949 377.079 182.1 377.079 456.302C377.079 730.503 337.965 913.467 280.589 913.467C221.919 913.467 182.805 730.341 182.805 456.302ZM320.025 456.302C320.025 289.735 304.832 179.665 279.78 179.665C254.729 179.665 239.536 289.897 239.536 456.302C239.536 622.868 254.729 734.237 279.78 734.237C304.832 734.237 320.025 622.706 320.025 456.302Z" fill="white"/>
<path d="M535.815 0.839844V173.033H488.618V913.161H432.369V173.033H384.849V0.839844H535.815Z" fill="white"/>
<path d="M489.428 914H431.563V173.704H384.043V0H536.626V173.704H489.428V914ZM433.18 912.322H487.812V172.025H535.009V1.6783H385.659V172.025H433.18V912.322Z" fill="white"/>
<path d="M731.555 913.161L718.301 698.675H660.112L647.181 913.161H586.407L658.173 0.839844H719.755L790.874 913.161H731.555ZM670.78 527.825H707.309L688.56 231.102L670.78 527.825Z" fill="white"/>
<path d="M791.675 914H730.739L717.485 699.514H660.751L647.82 914H585.43V913.161L657.357 0H720.394V0.839148L791.675 914ZM732.355 912.322H790.059L718.94 1.6783H658.812L587.046 912.322H646.204L659.135 697.836H718.778L732.355 912.322ZM708.11 528.663H669.964L687.906 231.101H689.522L708.11 528.663ZM671.581 526.985H706.332L688.552 244.36L671.581 526.985Z" fill="white"/>
<path d="M992.76 0.839844V173.033H945.563V913.161H889.314V173.033H841.794V0.839844H992.76Z" fill="white"/>
<path d="M946.371 914H888.506V173.704H840.986V0H993.568V173.704H946.371V914ZM890.122 912.322H944.755V172.025H991.952V1.6783H842.602V172.025H890.122V912.322Z" fill="white"/>
<path d="M1073.42 740.968H1151.81V913.161H1017.17V0.839844H1149.06V173.033H1073.42V375.603H1140.33V551.656H1073.42V740.968Z" fill="white"/>
<path d="M1152.46 914H1016.2V0H1149.71V173.704H1074.06V374.596H1141.14V552.327H1074.22V739.961H1152.46V914ZM1017.98 912.322H1150.84V741.807H1072.45V550.817H1139.52V376.274H1072.61V172.025H1148.25V1.6783H1017.98V912.322Z" fill="white"/>
<path d="M1172.83 631.573H1231.59C1231.59 712.23 1238.89 749.394 1253.01 749.394C1266.81 749.394 1272.81 712.23 1272.81 667.438C1272.81 608.528 1262.1 580.29 1249.6 554.811L1228.18 512.616C1197.99 453.705 1173.97 374.347 1173.97 242.406C1173.97 96.3474 1202.53 0.272949 1249.6 0.272949C1297 0.272949 1322.97 96.3474 1322.97 279.408H1264.54C1264.54 201.348 1257.72 166.78 1246.52 166.78C1235.32 166.78 1230.94 202.646 1230.94 239.81C1230.94 292.229 1239.38 323.064 1252.69 348.705L1270.22 381.974C1310.63 460.035 1329.79 543.288 1329.79 665.004C1329.79 813.498 1301.22 913.467 1251.06 913.467C1200.26 913.142 1172.83 812.037 1172.83 631.573Z" fill="white"/>
<path d="M1487.04 0.839844V173.033H1439.84V913.161H1383.59V173.033H1336.07V0.839844H1487.04Z" fill="white"/>
<path d="M1440.64 914H1382.78V173.704H1335.26V0H1487.84V173.704H1440.64V914ZM1384.39 912.322H1439.02V172.025H1486.22V1.6783H1336.87V172.025H1384.39V912.322Z" fill="white"/>
</svg>
